<?xml version="1.0" encoding="utf-8"?>
<!-- Generator: Adobe Illustrator 24.0.1, SVG Export Plug-In . SVG Version: 6.00 Build 0)  -->
<svg version="1.1" id="图层_1" xmlns="http://www.w3.org/2000/svg" xmlns:xlink="http://www.w3.org/1999/xlink" x="0px" y="0px"
	 viewBox="0 0 121.03 39.93" style="enable-background:new 0 0 121.03 39.93;" xml:space="preserve">
<style type="text/css">
	.st0{clip-path:url(#SVGID_2_);fill:none;stroke:#FFFFFF;stroke-width:6;stroke-miterlimit:10;}
	.st1{clip-path:url(#SVGID_2_);fill:none;stroke:#9B0000;stroke-width:1.002;stroke-miterlimit:10;}
	.st2{clip-path:url(#SVGID_2_);fill:none;stroke:#9B0000;stroke-width:3;stroke-miterlimit:10;}
	.st3{clip-path:url(#SVGID_46_);fill:#9B0000;}
	.st4{clip-path:url(#SVGID_46_);}
	.st5{clip-path:url(#SVGID_49_);}
	.st6{clip-path:url(#SVGID_54_);}
	.st7{clip-path:url(#SVGID_55_);}
	.st8{clip-path:url(#SVGID_60_);}
	.st9{clip-path:url(#SVGID_61_);}
	.st10{fill:none;stroke:#00A0E9;stroke-width:0.061;}
</style>
<g>
	<defs>
		<polyline id="SVGID_1_" points="-269.45,252.21 212.44,252.21 212.44,-428.11 		"/>
	</defs>
	<clipPath id="SVGID_2_">
		<use xlink:href="#SVGID_1_"  style="overflow:visible;"/>
	</clipPath>
	<path class="st0" d="M212.44-392.11"/>
	<path class="st1" d="M212.44-394.61"/>
	<path class="st2" d="M212.44-390.61"/>
	<path class="st2" d="M212.44,217.71"/>
	<path class="st1" d="M212.44,221.71"/>
</g>
<g>
	<defs>
		<polyline id="SVGID_3_" points="-269.45,252.21 212.44,252.21 212.44,-428.11 		"/>
	</defs>
	<clipPath id="SVGID_4_">
		<use xlink:href="#SVGID_3_"  style="overflow:visible;"/>
	</clipPath>
</g>
<g>
	<defs>
		<polyline id="SVGID_5_" points="-269.45,252.21 212.44,252.21 212.44,-428.11 		"/>
	</defs>
	<clipPath id="SVGID_6_">
		<use xlink:href="#SVGID_5_"  style="overflow:visible;"/>
	</clipPath>
</g>
<g>
	<defs>
		<polyline id="SVGID_7_" points="-269.45,252.21 212.44,252.21 212.44,-428.11 		"/>
	</defs>
	<clipPath id="SVGID_8_">
		<use xlink:href="#SVGID_7_"  style="overflow:visible;"/>
	</clipPath>
</g>
<g>
	<defs>
		<polyline id="SVGID_9_" points="-269.45,252.21 212.44,252.21 212.44,-428.11 		"/>
	</defs>
	<clipPath id="SVGID_10_">
		<use xlink:href="#SVGID_9_"  style="overflow:visible;"/>
	</clipPath>
</g>
<g>
	<defs>
		<polyline id="SVGID_11_" points="-269.45,252.21 212.44,252.21 212.44,-428.11 		"/>
	</defs>
	<clipPath id="SVGID_12_">
		<use xlink:href="#SVGID_11_"  style="overflow:visible;"/>
	</clipPath>
</g>
<g>
	<defs>
		<polyline id="SVGID_13_" points="-269.45,252.21 212.44,252.21 212.44,-428.11 		"/>
	</defs>
	<clipPath id="SVGID_14_">
		<use xlink:href="#SVGID_13_"  style="overflow:visible;"/>
	</clipPath>
</g>
<g>
	<defs>
		<polyline id="SVGID_15_" points="-269.45,252.21 212.44,252.21 212.44,-428.11 		"/>
	</defs>
	<clipPath id="SVGID_16_">
		<use xlink:href="#SVGID_15_"  style="overflow:visible;"/>
	</clipPath>
</g>
<g>
	<defs>
		<polyline id="SVGID_17_" points="-269.45,252.21 212.44,252.21 212.44,-428.11 		"/>
	</defs>
	<clipPath id="SVGID_18_">
		<use xlink:href="#SVGID_17_"  style="overflow:visible;"/>
	</clipPath>
</g>
<g>
	<defs>
		<polyline id="SVGID_19_" points="-269.45,252.21 212.44,252.21 212.44,-428.11 		"/>
	</defs>
	<clipPath id="SVGID_20_">
		<use xlink:href="#SVGID_19_"  style="overflow:visible;"/>
	</clipPath>
</g>
<g>
	<defs>
		<polyline id="SVGID_21_" points="-269.45,252.21 212.44,252.21 212.44,-428.11 		"/>
	</defs>
	<clipPath id="SVGID_22_">
		<use xlink:href="#SVGID_21_"  style="overflow:visible;"/>
	</clipPath>
</g>
<g>
	<defs>
		<polyline id="SVGID_23_" points="-269.45,252.21 212.44,252.21 212.44,-428.11 		"/>
	</defs>
	<clipPath id="SVGID_24_">
		<use xlink:href="#SVGID_23_"  style="overflow:visible;"/>
	</clipPath>
</g>
<g>
	<defs>
		<polyline id="SVGID_25_" points="-269.45,252.21 212.44,252.21 212.44,-428.11 		"/>
	</defs>
	<clipPath id="SVGID_26_">
		<use xlink:href="#SVGID_25_"  style="overflow:visible;"/>
	</clipPath>
</g>
<g>
	<defs>
		<polyline id="SVGID_27_" points="-269.45,252.21 212.44,252.21 212.44,-428.11 		"/>
	</defs>
	<clipPath id="SVGID_28_">
		<use xlink:href="#SVGID_27_"  style="overflow:visible;"/>
	</clipPath>
</g>
<g>
	<defs>
		<polyline id="SVGID_29_" points="-269.45,252.21 212.44,252.21 212.44,-428.11 		"/>
	</defs>
	<clipPath id="SVGID_30_">
		<use xlink:href="#SVGID_29_"  style="overflow:visible;"/>
	</clipPath>
</g>
<g>
	<defs>
		<polyline id="SVGID_31_" points="-269.45,252.21 212.44,252.21 212.44,-428.11 		"/>
	</defs>
	<clipPath id="SVGID_32_">
		<use xlink:href="#SVGID_31_"  style="overflow:visible;"/>
	</clipPath>
</g>
<g>
	<defs>
		<polyline id="SVGID_33_" points="-269.45,252.21 212.44,252.21 212.44,-428.11 		"/>
	</defs>
	<clipPath id="SVGID_34_">
		<use xlink:href="#SVGID_33_"  style="overflow:visible;"/>
	</clipPath>
</g>
<g>
	<defs>
		<polyline id="SVGID_35_" points="-269.45,252.21 212.44,252.21 212.44,-428.11 		"/>
	</defs>
	<clipPath id="SVGID_36_">
		<use xlink:href="#SVGID_35_"  style="overflow:visible;"/>
	</clipPath>
</g>
<g>
	<defs>
		<polyline id="SVGID_37_" points="-269.45,252.21 212.44,252.21 212.44,-428.11 		"/>
	</defs>
	<clipPath id="SVGID_38_">
		<use xlink:href="#SVGID_37_"  style="overflow:visible;"/>
	</clipPath>
</g>
<g>
	<defs>
		<polyline id="SVGID_39_" points="-269.45,252.21 212.44,252.21 212.44,-428.11 		"/>
	</defs>
	<clipPath id="SVGID_40_">
		<use xlink:href="#SVGID_39_"  style="overflow:visible;"/>
	</clipPath>
</g>
<g>
	<defs>
		<polyline id="SVGID_41_" points="-269.45,252.21 212.44,252.21 212.44,-428.11 		"/>
	</defs>
	<clipPath id="SVGID_42_">
		<use xlink:href="#SVGID_41_"  style="overflow:visible;"/>
	</clipPath>
</g>
<g>
	<defs>
		<polyline id="SVGID_43_" points="-269.45,252.21 212.44,252.21 212.44,-428.11 		"/>
	</defs>
	<clipPath id="SVGID_44_">
		<use xlink:href="#SVGID_43_"  style="overflow:visible;"/>
	</clipPath>
</g>
<g>
	<defs>
		<polyline id="SVGID_45_" points="-269.45,252.21 212.44,252.21 212.44,-428.11 		"/>
	</defs>
	<clipPath id="SVGID_46_">
		<use xlink:href="#SVGID_45_"  style="overflow:visible;"/>
	</clipPath>
	<path class="st3" d="M13.72,33.84l-0.02,0.01c-0.13-0.07-0.3-0.15-0.49-0.24c-0.19-0.09-0.39-0.17-0.61-0.26l-0.01-0.02l0.04-0.09
		l0.02-0.01c0.05,0.02,0.1,0.03,0.15,0.05c0.09,0.03,0.14,0.05,0.17,0.05c0.02,0,0.04-0.01,0.07-0.04c0.04-0.04,0.13-0.22,0.28-0.54
		l0.16-0.36c0.05-0.11,0.11-0.25,0.18-0.42l0.05-0.11c0.02-0.05,0.02-0.08,0-0.09c-0.01,0-0.04-0.01-0.1-0.01
		c-0.16,0-0.3,0-0.41,0.01l-0.01-0.02c0.02-0.06,0.04-0.12,0.05-0.2l0.01-0.01c0.3,0.05,0.65,0.08,1.04,0.1l0.02,0.04
		c-0.03,0.06-0.07,0.14-0.13,0.25c-0.02,0.04-0.08,0.15-0.17,0.34l-0.26,0.57c-0.18,0.41-0.28,0.63-0.28,0.67
		c0,0.02,0.01,0.05,0.03,0.06c0.03,0.03,0.11,0.08,0.26,0.15l0.01,0.02L13.72,33.84z"/>
	<path class="st3" d="M17.85,33.13c0.01-0.1-0.01-0.19-0.07-0.26c-0.06-0.07-0.15-0.12-0.27-0.13c-0.11-0.01-0.19,0-0.26,0.05
		c-0.07,0.05-0.1,0.11-0.12,0.19c-0.01,0.08,0.02,0.16,0.08,0.24c0.04,0.04,0.09,0.08,0.16,0.13c0.02,0.02,0.07,0.04,0.12,0.07
		l0.09,0.05C17.74,33.41,17.83,33.29,17.85,33.13 M17.7,34.3c0.02-0.15-0.04-0.28-0.18-0.38c-0.09-0.06-0.19-0.12-0.3-0.18
		l-0.05-0.02c-0.18,0.09-0.29,0.22-0.31,0.4c-0.01,0.1,0,0.18,0.03,0.25c0.07,0.15,0.19,0.24,0.36,0.26
		c0.12,0.02,0.22-0.01,0.3-0.07C17.64,34.51,17.69,34.42,17.7,34.3 M18.12,34.17c-0.02,0.12-0.06,0.23-0.12,0.32
		c-0.12,0.17-0.29,0.27-0.51,0.31c-0.09,0.02-0.2,0.02-0.32,0c-0.27-0.04-0.46-0.15-0.58-0.35c-0.05-0.09-0.07-0.2-0.05-0.33
		c0.02-0.16,0.1-0.28,0.23-0.37c0.04-0.03,0.13-0.07,0.27-0.11c-0.22-0.15-0.32-0.34-0.29-0.56c0.03-0.25,0.18-0.41,0.45-0.49
		c0.12-0.03,0.24-0.04,0.38-0.02c0.2,0.03,0.36,0.09,0.46,0.2c0.1,0.1,0.14,0.22,0.12,0.36c-0.03,0.19-0.16,0.33-0.4,0.42
		c0.16,0.08,0.26,0.18,0.32,0.28C18.13,33.92,18.14,34.04,18.12,34.17"/>
	<path class="st3" d="M21.39,33.26c-0.03-0.2-0.08-0.34-0.16-0.42c-0.08-0.09-0.17-0.12-0.28-0.11c-0.14,0.02-0.22,0.1-0.25,0.24
		c-0.02,0.08-0.02,0.16,0,0.26c0.02,0.16,0.07,0.29,0.15,0.36c0.08,0.07,0.17,0.1,0.27,0.09c0.14-0.02,0.23-0.09,0.26-0.2
		C21.4,33.42,21.4,33.35,21.39,33.26 M21.88,33.36c0.04,0.28,0.01,0.52-0.07,0.72c-0.09,0.21-0.23,0.39-0.4,0.53
		c-0.18,0.15-0.4,0.24-0.64,0.27l-0.15-0.08l0.03-0.07c0.04,0.01,0.08,0.01,0.13,0c0.18-0.02,0.34-0.11,0.46-0.25
		c0.05-0.06,0.09-0.13,0.13-0.22c0.06-0.14,0.08-0.34,0.08-0.6c-0.15,0.17-0.24,0.26-0.26,0.26c-0.07,0.04-0.16,0.06-0.25,0.07
		c-0.16,0.02-0.29-0.01-0.4-0.1c-0.12-0.1-0.2-0.24-0.22-0.43c-0.05-0.31,0.05-0.56,0.27-0.74c0.11-0.09,0.24-0.14,0.41-0.16
		c0.32-0.04,0.56,0.06,0.73,0.3C21.79,32.98,21.85,33.15,21.88,33.36"/>
	<path class="st3" d="M25.34,33.03c-0.06-0.14-0.18-0.22-0.35-0.23c-0.11-0.01-0.23-0.01-0.35,0l-0.05,0
		c-0.11,0.17-0.13,0.34-0.06,0.5c0.04,0.09,0.09,0.16,0.16,0.2c0.14,0.09,0.29,0.1,0.44,0.04c0.11-0.05,0.18-0.12,0.22-0.22
		C25.39,33.23,25.38,33.13,25.34,33.03 M24.86,31.95c-0.04-0.1-0.11-0.16-0.2-0.19c-0.09-0.03-0.19-0.02-0.3,0.03
		c-0.1,0.04-0.16,0.1-0.2,0.18c-0.03,0.07-0.03,0.15,0,0.22c0.03,0.08,0.1,0.13,0.19,0.16c0.05,0.01,0.12,0.02,0.2,0.02
		c0.03,0,0.08,0,0.14,0l0.1-0.01C24.9,32.24,24.92,32.1,24.86,31.95 M25.63,32.7c0.05,0.11,0.07,0.23,0.06,0.33
		c-0.01,0.21-0.1,0.38-0.27,0.53c-0.07,0.06-0.16,0.12-0.28,0.17c-0.24,0.11-0.47,0.11-0.67,0c-0.09-0.05-0.17-0.13-0.22-0.25
		c-0.06-0.15-0.06-0.3,0-0.43c0.02-0.04,0.08-0.12,0.17-0.23c-0.27-0.01-0.44-0.13-0.53-0.33c-0.1-0.23-0.06-0.45,0.13-0.66
		c0.08-0.09,0.18-0.16,0.31-0.22c0.19-0.08,0.35-0.11,0.5-0.07c0.14,0.04,0.23,0.12,0.29,0.25c0.08,0.18,0.04,0.37-0.12,0.57
		c0.18-0.01,0.32,0.01,0.42,0.07C25.5,32.48,25.57,32.57,25.63,32.7"/>
	<path class="st3" d="M13.15,34.42c-1.86-0.79-3.53-1.91-4.96-3.35c-1.44-1.43-2.56-3.1-3.35-4.96c-0.82-1.93-1.23-3.97-1.23-6.08
		c0-2.11,0.41-4.15,1.23-6.08c0.79-1.86,1.91-3.53,3.35-4.96c1.43-1.43,3.11-2.56,4.96-3.35c1.93-0.81,3.97-1.23,6.08-1.23
		s4.15,0.41,6.08,1.23c1.86,0.79,3.53,1.92,4.96,3.35c1.44,1.43,2.56,3.1,3.35,4.96c0.82,1.93,1.23,3.97,1.23,6.08
		c0,2.11-0.41,4.15-1.23,6.08c-0.79,1.86-1.91,3.53-3.35,4.96c-1.43,1.43-3.1,2.56-4.96,3.35c-1.93,0.82-3.97,1.23-6.08,1.23
		S15.08,35.24,13.15,34.42 M12.95,5.14C11.02,5.95,9.29,7.12,7.81,8.6c-1.48,1.48-2.65,3.21-3.46,5.14
		c-0.84,1.99-1.27,4.11-1.27,6.29c0,2.18,0.43,4.3,1.27,6.29c0.81,1.92,1.98,3.65,3.46,5.13c1.48,1.48,3.21,2.65,5.14,3.46
		c1.99,0.84,4.11,1.27,6.29,1.27s4.3-0.43,6.29-1.27c1.92-0.81,3.65-1.98,5.14-3.46c1.48-1.48,2.65-3.21,3.46-5.13
		c0.84-1.99,1.27-4.11,1.27-6.29c0-2.18-0.43-4.3-1.27-6.29c-0.81-1.92-1.98-3.65-3.46-5.14c-1.48-1.48-3.21-2.65-5.14-3.46
		c-1.99-0.84-4.11-1.27-6.29-1.27S14.94,4.3,12.95,5.14"/>
	<path class="st3" d="M14.72,30.7c-1.38-0.58-2.62-1.42-3.68-2.48s-1.9-2.3-2.48-3.68c-0.6-1.43-0.91-2.94-0.91-4.51
		c0-1.56,0.31-3.08,0.91-4.51c0.58-1.38,1.42-2.62,2.48-3.68c1.06-1.07,2.3-1.9,3.68-2.48c1.43-0.61,2.94-0.91,4.51-0.91
		s3.08,0.3,4.51,0.91c1.38,0.58,2.62,1.42,3.68,2.48c1.06,1.06,1.9,2.3,2.48,3.68c0.6,1.43,0.91,2.95,0.91,4.51
		c0,1.57-0.31,3.08-0.91,4.51c-0.58,1.38-1.42,2.62-2.48,3.68s-2.3,1.9-3.68,2.48c-1.43,0.61-2.95,0.91-4.51,0.91
		S16.15,31.31,14.72,30.7 M14.58,9.02c-1.42,0.6-2.7,1.46-3.8,2.56c-1.1,1.1-1.96,2.38-2.56,3.8c-0.62,1.47-0.94,3.04-0.94,4.65
		c0,1.61,0.32,3.18,0.94,4.65c0.6,1.42,1.46,2.7,2.56,3.8c1.09,1.1,2.37,1.96,3.8,2.56c1.47,0.63,3.04,0.94,4.65,0.94
		c1.61,0,3.18-0.31,4.65-0.94c1.42-0.6,2.7-1.46,3.8-2.56c1.1-1.1,1.96-2.37,2.56-3.8c0.62-1.47,0.94-3.04,0.94-4.65
		c0-1.61-0.32-3.18-0.94-4.65c-0.6-1.42-1.46-2.7-2.56-3.8c-1.1-1.1-2.38-1.96-3.8-2.56c-1.47-0.62-3.04-0.94-4.65-0.94
		C17.62,8.08,16.06,8.39,14.58,9.02"/>
	<path class="st3" d="M5.81,24.68c-0.15,0.06-0.25,0.13-0.3,0.22c-0.05,0.09-0.04,0.21,0.01,0.36l0.05,0.12l0.87-0.33l-0.02-0.06
		c-0.06-0.15-0.14-0.25-0.24-0.31S5.95,24.62,5.81,24.68 M5.53,24.16c0.11-0.04,0.22-0.06,0.32-0.04c0.1,0.01,0.19,0.05,0.27,0.11
		c0.08,0.06,0.16,0.15,0.22,0.24c0.07,0.1,0.12,0.21,0.17,0.35l0.06,0.16l0.56-0.21c0.03-0.01,0.06-0.03,0.08-0.05
		c0.02-0.02,0.03-0.05,0.03-0.1c0-0.02,0-0.06-0.01-0.1c-0.01-0.05-0.01-0.09-0.02-0.12l0.11-0.04l0.42,1.09L7.62,25.5
		c-0.01-0.03-0.03-0.06-0.05-0.1c-0.02-0.04-0.04-0.07-0.05-0.09c-0.03-0.03-0.06-0.05-0.08-0.05c-0.03,0-0.06,0-0.1,0.02l-1.4,0.54
		c-0.03,0.01-0.06,0.03-0.08,0.05c-0.02,0.02-0.03,0.05-0.03,0.1c0,0.03,0,0.07,0.01,0.12c0.01,0.05,0.01,0.08,0.02,0.1l-0.11,0.04
		l-0.42-1.1c-0.1-0.26-0.13-0.46-0.1-0.62C5.26,24.34,5.36,24.23,5.53,24.16"/>
	<path class="st3" d="M4.97,20.82l0.01,0.12c-0.08,0.04-0.15,0.1-0.23,0.18c-0.07,0.08-0.11,0.15-0.12,0.23c0,0.03,0,0.07,0,0.12
		c0,0.05,0.01,0.1,0.01,0.13l0.04,0.31l0.82-0.1l-0.03-0.22c-0.01-0.05-0.02-0.1-0.04-0.15c-0.02-0.04-0.05-0.08-0.09-0.11
		c-0.02-0.02-0.07-0.04-0.13-0.06c-0.06-0.01-0.11-0.02-0.15-0.03l-0.01-0.12l0.88-0.1l0.01,0.12c-0.04,0.01-0.09,0.03-0.15,0.06
		c-0.06,0.03-0.1,0.06-0.12,0.08c-0.03,0.04-0.05,0.08-0.06,0.12c-0.01,0.05-0.01,0.1,0,0.16l0.02,0.22l0.61-0.07
		c0.06-0.01,0.11-0.02,0.15-0.03c0.04-0.01,0.06-0.04,0.08-0.06c0.01-0.02,0.02-0.06,0.02-0.11c0-0.04,0-0.1-0.01-0.18
		c0-0.04-0.01-0.08-0.02-0.13c-0.01-0.05-0.01-0.09-0.02-0.13c-0.01-0.04-0.02-0.08-0.04-0.11c-0.01-0.04-0.03-0.06-0.05-0.08
		c-0.05-0.04-0.13-0.09-0.24-0.14c-0.11-0.05-0.18-0.08-0.24-0.09l-0.01-0.11l0.66-0.04l0.23,1.98l-0.12,0.01
		c-0.01-0.03-0.01-0.07-0.02-0.11c-0.01-0.05-0.02-0.08-0.03-0.1c-0.02-0.04-0.04-0.06-0.07-0.07c-0.02-0.01-0.06-0.01-0.1-0.01
		l-1.49,0.17c-0.04,0.01-0.07,0.01-0.09,0.03c-0.02,0.01-0.04,0.04-0.05,0.09c-0.01,0.03-0.02,0.07-0.02,0.11
		c0,0.05-0.01,0.08-0.01,0.11l-0.12,0.01l-0.22-1.88L4.97,20.82z"/>
	<path class="st3" d="M6.88,16.88l-0.12,0.83c-0.21,0.1-0.39,0.19-0.53,0.27c-0.14,0.08-0.33,0.19-0.55,0.32l-0.01,0.08l0.66,0.1
		c0.04,0,0.07,0,0.09-0.01c0.03-0.01,0.05-0.03,0.07-0.07c0.01-0.02,0.02-0.04,0.04-0.07c0.01-0.03,0.02-0.07,0.03-0.1l0.12,0.02
		l-0.16,1.12l-0.12-0.02c0-0.03,0-0.07,0.01-0.11c0-0.05,0-0.08,0-0.11c-0.01-0.04-0.02-0.07-0.05-0.08
		C6.34,19.02,6.31,19.01,6.27,19l-1.49-0.21c-0.03,0-0.07,0-0.09,0c-0.03,0.01-0.05,0.03-0.07,0.07c-0.02,0.03-0.04,0.07-0.05,0.11
		c-0.02,0.04-0.03,0.08-0.03,0.1l-0.12-0.02l0.17-1.16l0.12,0.02c0,0.03,0,0.07,0,0.11c0,0.04,0,0.08,0.01,0.11
		c0.01,0.04,0.02,0.07,0.05,0.09c0.03,0.02,0.05,0.03,0.09,0.03l0.71,0.1l0.01-0.06c-0.06-0.09-0.13-0.19-0.22-0.3
		s-0.16-0.21-0.21-0.27c-0.08-0.09-0.14-0.16-0.18-0.2c-0.05-0.04-0.09-0.07-0.13-0.07c-0.02,0-0.03,0.01-0.05,0.05
		c-0.02,0.03-0.03,0.09-0.04,0.16l-0.12-0.02l0.13-0.92l0.12,0.02c0,0.11,0.01,0.21,0.02,0.29c0.02,0.08,0.05,0.16,0.11,0.24
		c0.08,0.12,0.15,0.22,0.21,0.29c0.06,0.08,0.14,0.18,0.23,0.3c0.13-0.08,0.29-0.17,0.48-0.28c0.19-0.11,0.37-0.22,0.55-0.33
		c0.05-0.03,0.09-0.06,0.13-0.1c0.04-0.04,0.08-0.08,0.11-0.13c0.02-0.02,0.03-0.05,0.04-0.08c0.01-0.03,0.02-0.06,0.02-0.08
		L6.88,16.88z"/>
	<path class="st3" d="M7.68,14.77l-0.44,1.1l-0.11-0.04c0.01-0.03,0.02-0.06,0.04-0.11c0.01-0.05,0.02-0.09,0.02-0.11
		c0-0.04-0.01-0.07-0.03-0.09c-0.02-0.02-0.04-0.04-0.08-0.06l-1.4-0.56c-0.03-0.01-0.06-0.02-0.09-0.01
		c-0.03,0-0.06,0.02-0.09,0.05c-0.02,0.02-0.04,0.05-0.07,0.09c-0.03,0.04-0.05,0.07-0.06,0.1l-0.11-0.04l0.44-1.1l0.11,0.04
		c-0.01,0.03-0.02,0.07-0.03,0.11c-0.01,0.04-0.02,0.08-0.02,0.11c0,0.04,0.01,0.07,0.03,0.1c0.02,0.02,0.05,0.04,0.08,0.05
		l1.4,0.56c0.03,0.01,0.06,0.02,0.09,0.02c0.03,0,0.06-0.02,0.09-0.05c0.02-0.02,0.04-0.04,0.06-0.09c0.02-0.04,0.05-0.08,0.06-0.11
		L7.68,14.77z"/>
	<path class="st3" d="M8.02,10.45c-0.01,0.02-0.03,0.06-0.06,0.11c-0.02,0.05-0.03,0.09-0.03,0.15c0,0.05,0.02,0.1,0.07,0.15
		c0.04,0.05,0.12,0.11,0.22,0.19l1.24,0.89l-0.15,0.22L7.2,12.25l0.81,0.58c0.1,0.07,0.18,0.12,0.24,0.15
		C8.31,13,8.37,13.01,8.41,13c0.03-0.01,0.08-0.03,0.12-0.07c0.05-0.04,0.09-0.07,0.11-0.1l0.1,0.07l-0.53,0.74l-0.1-0.07
		c0.02-0.03,0.04-0.07,0.06-0.12c0.02-0.05,0.03-0.09,0.03-0.13c0-0.05-0.02-0.1-0.06-0.14c-0.04-0.05-0.11-0.11-0.23-0.19
		L7.09,12.4c-0.04-0.03-0.08-0.05-0.13-0.06c-0.05-0.01-0.09-0.02-0.14-0.01c-0.05,0.01-0.09,0.03-0.14,0.05
		c-0.04,0.03-0.08,0.06-0.13,0.1l-0.1-0.07l0.47-0.65l1.85-0.1l-0.66-0.47c-0.1-0.07-0.19-0.12-0.25-0.15
		c-0.06-0.02-0.11-0.03-0.16-0.02c-0.04,0.01-0.08,0.03-0.12,0.07c-0.05,0.04-0.08,0.07-0.11,0.09L7.4,11.12l0.53-0.74L8.02,10.45z"
		/>
	<path class="st3" d="M11.71,8.69c-0.02,0.02-0.04,0.04-0.06,0.06c-0.02,0.02-0.03,0.04-0.05,0.07c-0.02,0.04-0.03,0.07-0.02,0.1
		c0.01,0.03,0.02,0.06,0.04,0.09l0.15,0.19c0.03,0.04,0.06,0.07,0.08,0.09c0.02,0.02,0.04,0.05,0.07,0.09
		c-0.04,0.11-0.12,0.25-0.24,0.41c-0.12,0.16-0.24,0.3-0.37,0.4c-0.12,0.1-0.25,0.17-0.38,0.22c-0.14,0.05-0.27,0.07-0.41,0.06
		c-0.14-0.01-0.27-0.05-0.4-0.12c-0.13-0.07-0.25-0.17-0.36-0.31C9.66,9.9,9.58,9.77,9.54,9.62C9.49,9.48,9.48,9.34,9.49,9.19
		c0.02-0.14,0.07-0.28,0.14-0.41c0.08-0.14,0.19-0.26,0.33-0.37c0.1-0.07,0.19-0.14,0.29-0.18c0.1-0.04,0.18-0.07,0.26-0.08
		l0.02-0.12l0.1-0.08l0.5,0.6l-0.1,0.08c-0.21-0.14-0.38-0.21-0.54-0.24c-0.15-0.02-0.29,0.02-0.42,0.12
		C9.92,8.63,9.86,8.78,9.88,8.98c0.02,0.2,0.13,0.41,0.31,0.64c0.2,0.24,0.39,0.4,0.58,0.48s0.36,0.05,0.5-0.07
		c0.07-0.06,0.12-0.12,0.16-0.18c0.04-0.06,0.06-0.12,0.07-0.17l-0.27-0.34c-0.02-0.03-0.05-0.05-0.07-0.06
		c-0.03-0.01-0.06-0.01-0.1,0c-0.03,0.01-0.07,0.02-0.11,0.04c-0.04,0.02-0.08,0.04-0.1,0.05L10.78,9.3l0.86-0.7L11.71,8.69z"/>
	<path class="st3" d="M16.68,5.5c-0.03,0.01-0.07,0.03-0.12,0.05c-0.05,0.02-0.09,0.05-0.12,0.09c-0.03,0.03-0.05,0.08-0.04,0.15
		c0,0.06,0.02,0.16,0.05,0.29l0.2,0.76c0.06,0.22,0.03,0.43-0.08,0.6c-0.12,0.18-0.3,0.3-0.55,0.37c-0.29,0.08-0.54,0.07-0.74-0.02
		c-0.2-0.09-0.33-0.25-0.39-0.49l-0.28-1.05c-0.01-0.03-0.02-0.06-0.04-0.08c-0.02-0.02-0.05-0.04-0.09-0.05
		c-0.03-0.01-0.06-0.01-0.1-0.01c-0.04,0-0.07,0.01-0.09,0.01l-0.03-0.11l1.08-0.29l0.03,0.11c-0.03,0.01-0.06,0.02-0.09,0.04
		c-0.03,0.01-0.06,0.03-0.09,0.05c-0.04,0.02-0.05,0.05-0.06,0.08c-0.01,0.03,0,0.06,0.01,0.1l0.28,1.04
		c0.06,0.2,0.14,0.34,0.25,0.41c0.12,0.07,0.26,0.08,0.43,0.04c0.17-0.05,0.29-0.13,0.36-0.26c0.07-0.13,0.08-0.29,0.02-0.49
		l-0.18-0.7c-0.03-0.12-0.07-0.21-0.1-0.27c-0.03-0.06-0.07-0.09-0.11-0.11c-0.03-0.01-0.08-0.02-0.15-0.02c-0.07,0-0.11,0-0.14,0
		l-0.03-0.12l0.9-0.24L16.68,5.5z"/>
	<path class="st3" d="M20.7,5.35c-0.03,0-0.07,0.01-0.12,0.01c-0.05,0.01-0.1,0.03-0.14,0.06c-0.04,0.03-0.06,0.07-0.08,0.14
		c-0.02,0.06-0.02,0.16-0.03,0.29l-0.02,1.53l-0.27,0l-1.3-1.67l-0.01,1c0,0.12,0.01,0.22,0.02,0.28c0.02,0.07,0.04,0.11,0.08,0.14
		c0.03,0.02,0.07,0.04,0.13,0.06c0.06,0.02,0.1,0.03,0.14,0.04l0,0.12l-0.92-0.01l0-0.12c0.04-0.01,0.08-0.01,0.13-0.02
		c0.05-0.01,0.09-0.03,0.13-0.05c0.04-0.03,0.07-0.07,0.08-0.13c0.02-0.06,0.02-0.16,0.02-0.29l0.01-1.01c0-0.05-0.01-0.1-0.02-0.14
		c-0.02-0.04-0.04-0.08-0.07-0.12c-0.03-0.03-0.07-0.06-0.12-0.08c-0.04-0.02-0.1-0.04-0.15-0.05V5.2L19,5.21l1.14,1.46l0.01-0.81
		c0-0.13,0-0.22-0.02-0.29c-0.02-0.06-0.04-0.11-0.08-0.14c-0.03-0.02-0.07-0.04-0.13-0.06c-0.06-0.02-0.1-0.03-0.14-0.04l0-0.11
		l0.91,0.01L20.7,5.35z"/>
	<path class="st3" d="M22.99,7.9l-1.15-0.29l0.03-0.11c0.03,0,0.07,0.01,0.12,0.02c0.05,0.01,0.09,0.01,0.11,0.01
		c0.04-0.01,0.07-0.02,0.09-0.04c0.02-0.02,0.03-0.05,0.04-0.08l0.38-1.46c0.01-0.03,0.01-0.06,0-0.09
		c-0.01-0.03-0.03-0.06-0.06-0.08c-0.02-0.02-0.05-0.03-0.1-0.06c-0.04-0.02-0.08-0.04-0.11-0.05l0.03-0.11l1.15,0.3L23.5,5.95
		c-0.03,0-0.07-0.01-0.11-0.02c-0.05-0.01-0.08-0.01-0.12-0.01c-0.04,0-0.07,0.02-0.09,0.04c-0.02,0.02-0.03,0.05-0.04,0.09
		l-0.38,1.46c-0.01,0.04-0.01,0.07,0,0.09c0.01,0.03,0.03,0.05,0.06,0.08c0.02,0.01,0.05,0.03,0.09,0.05
		c0.04,0.02,0.08,0.03,0.11,0.04L22.99,7.9z"/>
	<path class="st3" d="M27.19,7.61c-0.03-0.01-0.06-0.02-0.09-0.03c-0.03-0.01-0.07-0.01-0.1-0.01c-0.05,0-0.09,0.01-0.13,0.02
		c-0.03,0.02-0.07,0.04-0.12,0.07c-0.06,0.05-0.14,0.12-0.26,0.21c-0.11,0.09-0.24,0.19-0.38,0.31c-0.13,0.1-0.27,0.22-0.42,0.35
		c-0.15,0.12-0.3,0.25-0.43,0.36L25,8.76c0.04-0.37,0.07-0.74,0.11-1.12c0.04-0.38,0.06-0.65,0.07-0.8c0-0.05,0-0.1,0-0.13
		c-0.01-0.03-0.03-0.07-0.05-0.12c-0.02-0.03-0.04-0.06-0.06-0.08c-0.02-0.02-0.05-0.04-0.08-0.07l0.06-0.1l1.02,0.54L26,6.98
		c-0.1-0.04-0.18-0.07-0.22-0.07c-0.04-0.01-0.07,0-0.08,0.02c0,0.01-0.01,0.02-0.01,0.03c0,0.01-0.01,0.03-0.01,0.05
		c-0.01,0.09-0.03,0.25-0.05,0.46c-0.02,0.22-0.05,0.55-0.1,0.99c0.21-0.18,0.38-0.32,0.53-0.45c0.14-0.12,0.27-0.23,0.37-0.32
		c0.05-0.05,0.1-0.09,0.14-0.13c0.04-0.04,0.07-0.07,0.08-0.1c0.02-0.03,0.01-0.06-0.02-0.1c-0.03-0.04-0.1-0.1-0.21-0.16l0.05-0.1
		l0.76,0.4L27.19,7.61z"/>
	<path class="st3" d="M29.5,10.09l-0.09-0.08c0.04-0.08,0.05-0.17,0.06-0.28c0-0.11-0.01-0.19-0.05-0.25
		c-0.02-0.03-0.05-0.06-0.08-0.09c-0.04-0.04-0.07-0.07-0.09-0.09l-0.23-0.21l-0.55,0.61l0.16,0.15c0.04,0.03,0.08,0.06,0.12,0.08
		c0.04,0.02,0.09,0.03,0.14,0.03c0.03,0,0.08-0.02,0.13-0.04c0.05-0.03,0.1-0.05,0.14-0.08l0.08,0.08l-0.6,0.65l-0.09-0.08
		c0.02-0.03,0.05-0.08,0.07-0.15c0.02-0.07,0.04-0.11,0.04-0.15c0-0.05-0.01-0.09-0.03-0.13c-0.02-0.04-0.06-0.08-0.1-0.12
		L28.37,9.8l-0.41,0.45c-0.04,0.05-0.07,0.09-0.09,0.12c-0.02,0.03-0.02,0.07-0.02,0.1c0,0.03,0.02,0.06,0.05,0.1
		c0.03,0.03,0.07,0.08,0.13,0.13c0.03,0.02,0.06,0.05,0.09,0.08c0.04,0.03,0.07,0.06,0.1,0.08c0.03,0.02,0.07,0.05,0.1,0.06
		c0.04,0.02,0.06,0.02,0.09,0.02c0.07,0,0.16-0.02,0.27-0.06c0.11-0.04,0.19-0.06,0.24-0.09l0.08,0.07l-0.48,0.46l-1.47-1.35
		l0.08-0.09c0.02,0.02,0.05,0.04,0.09,0.07c0.04,0.03,0.07,0.04,0.09,0.05c0.04,0.01,0.07,0.02,0.1,0.01
		c0.03-0.01,0.05-0.03,0.08-0.06l1.01-1.11c0.02-0.03,0.04-0.05,0.05-0.08c0.01-0.03,0-0.06-0.02-0.1c-0.01-0.03-0.03-0.06-0.06-0.1
		c-0.03-0.04-0.05-0.07-0.07-0.09l0.08-0.09l1.39,1.27L29.5,10.09z"/>
	<path class="st3" d="M31.39,12.56c0.12-0.08,0.18-0.17,0.2-0.27c0.01-0.1-0.02-0.21-0.1-0.34l-0.07-0.1l-0.75,0.48l0.06,0.1
		c0.08,0.12,0.17,0.2,0.28,0.22C31.12,12.68,31.25,12.65,31.39,12.56 M30.61,14.27l-0.44-0.69c0.11-0.23,0.19-0.43,0.24-0.57
		c0.06-0.15,0.12-0.33,0.18-0.53l-0.04-0.07l-0.54,0.35c-0.03,0.02-0.05,0.04-0.07,0.07c-0.01,0.02-0.02,0.06-0.01,0.1
		c0,0.02,0.01,0.05,0.03,0.09c0.02,0.04,0.03,0.07,0.04,0.1l-0.1,0.06l-0.62-0.96l0.1-0.06c0.02,0.02,0.04,0.05,0.07,0.09
		c0.03,0.04,0.05,0.06,0.07,0.07c0.03,0.02,0.07,0.03,0.09,0.03c0.03,0,0.06-0.01,0.09-0.03l1.26-0.81
		c0.03-0.02,0.05-0.04,0.07-0.06c0.02-0.02,0.02-0.06,0.01-0.1c-0.01-0.03-0.02-0.07-0.04-0.12c-0.02-0.04-0.03-0.07-0.04-0.1
		l0.1-0.06l0.65,1c0.15,0.23,0.22,0.42,0.23,0.58c0,0.16-0.07,0.29-0.21,0.38c-0.13,0.08-0.25,0.11-0.37,0.09
		c-0.12-0.02-0.25-0.1-0.39-0.21c-0.04,0.1-0.08,0.23-0.13,0.37c-0.05,0.14-0.1,0.28-0.15,0.43c-0.02,0.05-0.03,0.11-0.05,0.18
		c-0.02,0.08-0.02,0.13-0.01,0.18c0.01,0.02,0.02,0.05,0.03,0.08c0.01,0.03,0.02,0.06,0.03,0.07L30.61,14.27z"/>
	<path class="st3" d="M31.21,16.02c-0.04-0.12-0.07-0.24-0.07-0.36c-0.01-0.12,0-0.22,0.02-0.31l-0.13-0.07l-0.04-0.12l0.73-0.26
		l0.04,0.12c-0.06,0.05-0.12,0.11-0.18,0.18c-0.06,0.07-0.11,0.14-0.15,0.22c-0.04,0.08-0.07,0.16-0.09,0.25
		c-0.02,0.08-0.01,0.17,0.02,0.27c0.04,0.13,0.11,0.22,0.19,0.26c0.08,0.05,0.18,0.06,0.27,0.02c0.08-0.03,0.13-0.08,0.17-0.15
		c0.03-0.08,0.05-0.18,0.05-0.32c0-0.09,0-0.17,0-0.25c0-0.07,0-0.14,0-0.21c0.01-0.15,0.05-0.28,0.13-0.38
		c0.08-0.1,0.18-0.17,0.31-0.21c0.08-0.03,0.16-0.04,0.24-0.03c0.08,0.01,0.17,0.04,0.25,0.08c0.08,0.04,0.15,0.11,0.21,0.2
		c0.07,0.09,0.12,0.19,0.16,0.3c0.04,0.11,0.06,0.22,0.06,0.33c0,0.11,0,0.2-0.01,0.26l0.11,0.06l0.04,0.12l-0.68,0.24l-0.04-0.12
		c0.06-0.05,0.13-0.11,0.19-0.18c0.06-0.06,0.11-0.13,0.15-0.19c0.04-0.07,0.06-0.13,0.08-0.2c0.01-0.07,0.01-0.15-0.02-0.23
		c-0.03-0.1-0.09-0.18-0.17-0.22c-0.08-0.05-0.16-0.05-0.25-0.03c-0.08,0.03-0.14,0.08-0.17,0.15c-0.03,0.07-0.05,0.18-0.05,0.31
		c0,0.08,0,0.16,0,0.24c0,0.08,0,0.15,0,0.22c-0.01,0.16-0.04,0.29-0.11,0.39c-0.07,0.1-0.17,0.18-0.31,0.22
		c-0.09,0.03-0.18,0.04-0.27,0.02c-0.1-0.01-0.18-0.05-0.26-0.1c-0.09-0.06-0.16-0.13-0.23-0.22
		C31.31,16.27,31.25,16.15,31.21,16.02"/>
	<path class="st3" d="M31.9,19.3l-0.12-1.18l0.12-0.01c0.01,0.03,0.01,0.07,0.02,0.12c0.01,0.05,0.02,0.09,0.03,0.1
		c0.02,0.04,0.04,0.06,0.07,0.07c0.02,0.01,0.06,0.01,0.1,0.01l1.5-0.15c0.04,0,0.06-0.01,0.09-0.03c0.02-0.02,0.04-0.04,0.05-0.08
		c0.01-0.02,0.01-0.06,0.02-0.11c0.01-0.05,0.01-0.09,0.01-0.12l0.12-0.01l0.12,1.18l-0.12,0.01c-0.01-0.03-0.02-0.07-0.03-0.11
		c-0.01-0.04-0.02-0.08-0.04-0.11c-0.02-0.04-0.04-0.06-0.07-0.07c-0.03-0.01-0.06-0.01-0.1-0.01l-1.5,0.15
		c-0.04,0-0.07,0.01-0.09,0.03c-0.02,0.02-0.04,0.04-0.05,0.08c-0.01,0.02-0.01,0.06-0.02,0.11c0,0.05,0,0.09,0,0.12L31.9,19.3z"/>
	<path class="st3" d="M33.21,22.74l0.01-0.12c0.09-0.02,0.2-0.06,0.31-0.11c0.11-0.06,0.17-0.11,0.19-0.17
		c0.01-0.03,0.02-0.07,0.02-0.12c0.01-0.05,0.01-0.09,0.02-0.12l0.01-0.07l-1.66-0.2c-0.04,0-0.07,0-0.1,0.01
		c-0.03,0.01-0.05,0.03-0.07,0.07c-0.01,0.02-0.02,0.06-0.04,0.1c-0.02,0.05-0.03,0.09-0.03,0.12l-0.12-0.01l0.14-1.18l0.11,0.01
		c0,0.03,0,0.07,0,0.12c0,0.05,0,0.09,0.01,0.11c0.01,0.04,0.03,0.07,0.05,0.09c0.02,0.02,0.06,0.03,0.09,0.03l1.67,0.2l0.01-0.07
		c0.01-0.03,0.01-0.07,0.01-0.12c0-0.05,0-0.08,0-0.12c0-0.06-0.05-0.13-0.15-0.21c-0.1-0.08-0.18-0.14-0.27-0.18l0.01-0.12
		l0.61,0.07l-0.24,2.05L33.21,22.74z"/>
	<path class="st3" d="M32.52,26.43c0.01-0.03,0.01-0.07,0.02-0.1c0-0.03,0-0.06-0.01-0.09c-0.01-0.05-0.02-0.1-0.04-0.14
		c-0.02-0.04-0.05-0.09-0.08-0.14c-0.07-0.09-0.14-0.19-0.22-0.3c-0.08-0.11-0.17-0.22-0.26-0.35c-0.06-0.08-0.11-0.14-0.15-0.17
		c-0.04-0.03-0.11-0.06-0.21-0.1l-0.28-0.11c-0.03-0.01-0.07-0.02-0.1-0.01c-0.03,0-0.06,0.02-0.09,0.05
		c-0.01,0.01-0.03,0.04-0.07,0.09c-0.03,0.05-0.05,0.08-0.06,0.11l-0.11-0.04l0.43-1.11l0.11,0.04c-0.01,0.03-0.02,0.07-0.03,0.12
		c-0.01,0.05-0.02,0.09-0.02,0.11c0,0.04,0.01,0.07,0.03,0.09c0.02,0.02,0.05,0.04,0.08,0.05l0.35,0.13
		c0.03,0.01,0.06,0.02,0.08,0.03c0.02,0.01,0.04,0.01,0.06,0.01c0.02,0,0.05,0,0.08-0.01c0.03-0.01,0.08-0.01,0.13-0.02
		c0.15-0.02,0.3-0.04,0.44-0.07c0.14-0.02,0.27-0.05,0.39-0.07c0.06-0.01,0.12-0.03,0.16-0.05c0.04-0.02,0.08-0.04,0.11-0.07
		c0.02-0.02,0.05-0.05,0.07-0.08c0.02-0.03,0.04-0.06,0.05-0.09l0.11,0.04l-0.44,1.14l-0.11-0.04c0.04-0.11,0.06-0.18,0.06-0.22
		c0-0.04-0.01-0.07-0.03-0.07c-0.01,0-0.03,0-0.07,0c-0.04,0-0.09,0.01-0.17,0.02c-0.07,0.01-0.17,0.02-0.3,0.04
		c-0.13,0.02-0.28,0.05-0.46,0.08c0.21,0.29,0.36,0.48,0.45,0.59c0.09,0.11,0.14,0.17,0.17,0.18c0.03,0.01,0.06,0,0.1-0.03
		c0.03-0.03,0.07-0.09,0.1-0.18l0.11,0.04l-0.28,0.74L32.52,26.43z"/>
	<path class="st3" d="M26.06,25.61c-0.36-0.85-0.78-1.63-1.23-2.33c-0.48-0.73-0.99-1.37-1.54-1.89c-0.59-0.56-1.22-1-1.87-1.3
		c-0.43-0.2-0.87-0.34-1.32-0.41v-0.51c0-0.48-0.39-0.87-0.87-0.87c-0.48,0-0.87,0.39-0.87,0.87v0.51
		c-0.45,0.08-0.89,0.22-1.31,0.41c-0.65,0.3-1.28,0.74-1.87,1.3c-0.55,0.52-1.07,1.16-1.54,1.89c-0.45,0.69-0.87,1.48-1.23,2.33
		c-0.18,0.43,0.01,0.92,0.44,1.1c0.43,0.18,0.92-0.02,1.1-0.44c0.66-1.54,1.48-2.81,2.39-3.67c0.65-0.62,1.33-1.03,2.03-1.21v1.37
		c0,0.47-0.35,0.65-0.51,0.75c-0.05,0.03-0.16,0.1-0.21,0.13c-0.32,0.21-0.69,0.53-1.04,0.98c-0.62,0.8-1.11,1.89-1.37,3.07
		c-0.1,0.45,0.19,0.9,0.64,1c0.45,0.1,0.9-0.19,1-0.64c0.2-0.94,0.58-1.79,1.05-2.4c0.24-0.31,0.73-0.83,1.3-0.83
		c0.57,0,1.06,0.52,1.3,0.83c0.47,0.61,0.85,1.46,1.05,2.4c0.1,0.45,0.55,0.74,1,0.64c0.45-0.1,0.74-0.54,0.64-1
		c-0.26-1.18-0.74-2.27-1.37-3.07c-0.35-0.44-0.72-0.77-1.04-0.98c-0.05-0.03-0.16-0.1-0.21-0.13c-0.16-0.1-0.5-0.28-0.5-0.75v-1.37
		c0.7,0.18,1.37,0.59,2.03,1.21c0.91,0.86,1.73,2.13,2.39,3.67c0.18,0.43,0.68,0.62,1.1,0.44C26.05,26.53,26.25,26.04,26.06,25.61
		 M19.98,11.68v0.03v4.96v0.44c0,0.29,0.21,0.7,0.66,0.8c1.01,0.21,2.16,0.8,3.2,1.66c1.02,0.84,1.98,1.95,2.85,3.29
		c0.25,0.39,0.77,0.5,1.16,0.25c0.25-0.16,0.38-0.43,0.38-0.71c0-0.16-0.04-0.32-0.14-0.46c-0.96-1.48-2.04-2.71-3.19-3.67
		c-1.02-0.85-2.09-1.45-3.18-1.8v-1.93c1.57,0.43,3.21,1.33,4.63,2.54c0.35,0.3,0.88,0.26,1.18-0.09c0.3-0.35,0.26-0.88-0.09-1.18
		c-0.9-0.77-1.93-1.46-2.97-1.99c-0.92-0.46-1.84-0.8-2.75-1.01v-1.12c0-0.48-0.39-0.87-0.87-0.87
		C20.37,10.81,19.98,11.2,19.98,11.68 M17.62,10.81c-0.48,0-0.87,0.39-0.87,0.87v1.12c-0.91,0.21-1.83,0.55-2.75,1.01
		c-1.04,0.53-2.07,1.21-2.97,1.99c-0.35,0.3-0.39,0.83-0.09,1.18c0.3,0.35,0.83,0.39,1.18,0.09c1.41-1.21,3.05-2.11,4.63-2.54v1.93
		c-1.09,0.36-2.16,0.96-3.19,1.8c-1.15,0.95-2.22,2.18-3.19,3.67c-0.09,0.14-0.14,0.3-0.14,0.46c0,0.28,0.14,0.54,0.38,0.71
		c0.39,0.25,0.91,0.14,1.16-0.25c0.87-1.34,1.83-2.45,2.85-3.29c1.04-0.86,2.19-1.45,3.2-1.66c0.45-0.1,0.65-0.51,0.65-0.8v-0.44
		v-4.96v-0.03C18.49,11.2,18.1,10.81,17.62,10.81 M30.22,20.03c0,6.07-4.92,10.99-10.99,10.99c-6.07,0-10.99-4.92-10.99-10.99
		c0-6.07,4.92-10.99,10.99-10.99C25.3,9.04,30.22,13.96,30.22,20.03"/>
	<path class="st4" d="M44.83,32.05c0.08-0.12,0.14-0.24,0.16-0.36c0.03-0.12,0.04-0.24,0.04-0.34c0-0.14-0.02-0.28-0.05-0.42
		c-0.03-0.14-0.09-0.27-0.17-0.37c-0.08-0.11-0.2-0.2-0.33-0.26c-0.14-0.06-0.31-0.09-0.51-0.09h-0.51v2.27h0.37
		c0.26,0,0.47-0.04,0.63-0.12C44.62,32.28,44.74,32.18,44.83,32.05 M45.93,31.18c0,0.27-0.05,0.51-0.16,0.71
		c-0.1,0.21-0.25,0.38-0.44,0.52c-0.18,0.14-0.39,0.24-0.61,0.3c-0.22,0.06-0.45,0.09-0.7,0.09h-0.58v1.56
		c0,0.09,0.01,0.16,0.04,0.22c0.03,0.06,0.08,0.11,0.17,0.15c0.04,0.02,0.12,0.03,0.23,0.05c0.11,0.02,0.21,0.02,0.31,0.03v0.26H42
		V34.8c0.06,0,0.14-0.01,0.25-0.03c0.11-0.01,0.18-0.03,0.23-0.05c0.07-0.03,0.12-0.08,0.15-0.14c0.03-0.06,0.05-0.14,0.05-0.23
		v-3.72c0-0.08-0.01-0.16-0.04-0.23c-0.02-0.07-0.08-0.12-0.17-0.15c-0.09-0.03-0.18-0.05-0.27-0.07c-0.09-0.01-0.17-0.02-0.23-0.03
		v-0.26h2.35c0.48,0,0.87,0.12,1.16,0.35C45.78,30.48,45.93,30.79,45.93,31.18"/>
	<path class="st4" d="M50.86,33.54l-0.1,1.52h-4.27V34.8c0.07,0,0.17-0.01,0.29-0.03c0.12-0.02,0.2-0.03,0.24-0.05
		c0.08-0.04,0.13-0.08,0.16-0.14c0.03-0.06,0.04-0.13,0.04-0.22v-3.71c0-0.08-0.01-0.15-0.04-0.21c-0.03-0.06-0.08-0.11-0.17-0.15
		c-0.07-0.03-0.15-0.06-0.26-0.08c-0.11-0.02-0.2-0.04-0.26-0.04v-0.26h3.98v1.24H50.2c-0.05-0.18-0.15-0.37-0.31-0.57
		c-0.16-0.2-0.31-0.31-0.46-0.33c-0.08-0.01-0.17-0.02-0.27-0.02c-0.1,0-0.22-0.01-0.36-0.01h-0.81v2.03h0.58
		c0.19,0,0.32-0.02,0.41-0.05c0.08-0.03,0.16-0.09,0.23-0.18c0.05-0.07,0.1-0.16,0.13-0.28c0.04-0.12,0.06-0.23,0.07-0.33h0.27v2.02
		h-0.27c-0.01-0.12-0.04-0.24-0.08-0.37c-0.04-0.13-0.09-0.22-0.13-0.28c-0.08-0.1-0.16-0.15-0.26-0.19
		c-0.1-0.03-0.22-0.04-0.38-0.04h-0.58v1.54c0,0.15,0.01,0.28,0.03,0.36c0.02,0.09,0.06,0.16,0.13,0.2
		c0.06,0.05,0.15,0.08,0.26,0.09c0.11,0.01,0.26,0.02,0.46,0.02h0.31c0.13,0,0.24,0,0.33-0.01c0.09-0.01,0.19-0.03,0.28-0.05
		c0.1-0.02,0.17-0.06,0.21-0.1c0.11-0.12,0.23-0.29,0.35-0.53c0.12-0.24,0.2-0.41,0.23-0.52H50.86z"/>
	<path class="st4" d="M56.16,35.06h-1.45c-0.28-0.43-0.59-0.86-0.93-1.28c-0.34-0.42-0.7-0.84-1.07-1.24h-0.09v1.79
		c0,0.08,0.02,0.15,0.04,0.21c0.03,0.06,0.08,0.11,0.16,0.15c0.04,0.02,0.11,0.04,0.21,0.06c0.1,0.02,0.19,0.04,0.26,0.04v0.26
		h-2.13V34.8c0.06,0,0.14-0.01,0.24-0.02c0.11-0.01,0.18-0.02,0.23-0.04c0.07-0.03,0.13-0.08,0.16-0.14
		c0.03-0.06,0.05-0.14,0.05-0.22v-3.72c0-0.08-0.01-0.15-0.04-0.21c-0.03-0.06-0.08-0.11-0.17-0.15c-0.07-0.03-0.14-0.06-0.23-0.08
		c-0.09-0.02-0.17-0.04-0.24-0.04V29.9h2.13v0.26c-0.07,0-0.15,0.01-0.25,0.03c-0.1,0.02-0.17,0.04-0.22,0.06
		c-0.08,0.03-0.14,0.08-0.16,0.14c-0.03,0.07-0.04,0.14-0.04,0.22v1.78h0.07c0.22-0.18,0.43-0.38,0.64-0.58
		c0.21-0.2,0.4-0.4,0.57-0.6c0.19-0.22,0.33-0.4,0.42-0.53c0.09-0.13,0.13-0.25,0.13-0.35c0-0.04-0.02-0.07-0.07-0.09
		c-0.04-0.02-0.1-0.04-0.15-0.06c-0.07-0.01-0.13-0.02-0.18-0.03c-0.05,0-0.1-0.01-0.13-0.01V29.9h1.93v0.26c-0.01,0-0.02,0-0.05,0
		c-0.02,0-0.05,0-0.08,0.01c-0.03,0-0.07,0.01-0.1,0.01c-0.03,0.01-0.08,0.01-0.13,0.02c-0.08,0.02-0.17,0.05-0.26,0.09
		c-0.09,0.04-0.17,0.1-0.22,0.16c-0.25,0.28-0.51,0.58-0.78,0.88c-0.27,0.3-0.54,0.58-0.81,0.83c0.37,0.42,0.67,0.77,0.91,1.07
		c0.24,0.3,0.5,0.62,0.77,0.96c0.1,0.13,0.21,0.24,0.31,0.31c0.1,0.08,0.19,0.14,0.27,0.18c0.06,0.03,0.14,0.06,0.23,0.07
		c0.09,0.02,0.17,0.03,0.24,0.03V35.06z"/>
	<path class="st4" d="M58.75,35.06h-2.33V34.8c0.07,0,0.16-0.01,0.28-0.02c0.12-0.01,0.21-0.02,0.26-0.04
		c0.08-0.03,0.14-0.07,0.17-0.13c0.04-0.05,0.05-0.13,0.05-0.23v-3.73c0-0.09-0.01-0.15-0.04-0.21c-0.03-0.06-0.09-0.1-0.19-0.14
		c-0.07-0.03-0.16-0.06-0.27-0.08c-0.11-0.03-0.2-0.04-0.27-0.05V29.9h2.33v0.26c-0.08,0-0.17,0.01-0.27,0.03
		c-0.1,0.01-0.2,0.03-0.27,0.06c-0.09,0.03-0.15,0.08-0.19,0.14c-0.03,0.07-0.05,0.14-0.05,0.22v3.73c0,0.08,0.02,0.15,0.05,0.21
		c0.04,0.06,0.1,0.11,0.18,0.15c0.05,0.02,0.13,0.04,0.25,0.06c0.12,0.02,0.21,0.04,0.29,0.04V35.06z"/>
	<path class="st4" d="M64.52,30.16c-0.07,0-0.17,0.02-0.31,0.06c-0.14,0.04-0.24,0.08-0.3,0.11c-0.09,0.06-0.15,0.18-0.18,0.35
		c-0.03,0.17-0.05,0.39-0.05,0.65v3.78h-0.32l-3.13-4.22v2.66c0,0.3,0.02,0.53,0.06,0.69c0.04,0.16,0.09,0.27,0.17,0.34
		c0.06,0.05,0.17,0.1,0.34,0.15c0.18,0.05,0.29,0.07,0.35,0.07v0.26h-2.11V34.8c0.07,0,0.17-0.03,0.33-0.07
		c0.15-0.04,0.25-0.08,0.29-0.12c0.08-0.07,0.14-0.17,0.17-0.31c0.03-0.14,0.05-0.38,0.05-0.71v-2.54c0-0.11-0.02-0.22-0.06-0.34
		c-0.04-0.11-0.09-0.2-0.15-0.26c-0.09-0.08-0.2-0.15-0.35-0.21c-0.15-0.06-0.27-0.09-0.36-0.09V29.9h1.47l2.9,3.93v-2.45
		c0-0.3-0.02-0.53-0.06-0.69c-0.04-0.16-0.09-0.27-0.17-0.32c-0.07-0.05-0.18-0.09-0.33-0.13c-0.15-0.04-0.27-0.07-0.35-0.07V29.9
		h2.1V30.16z"/>
	<path class="st4" d="M69.93,32.99c-0.06,0.01-0.14,0.02-0.24,0.03c-0.1,0.02-0.18,0.04-0.24,0.07c-0.07,0.04-0.12,0.09-0.15,0.15
		s-0.04,0.14-0.04,0.23v0.4c0,0.29,0,0.49,0,0.59c0,0.1,0.01,0.18,0.01,0.25c-0.32,0.15-0.64,0.26-0.96,0.34
		c-0.32,0.08-0.63,0.12-0.94,0.12c-0.33,0-0.65-0.06-0.95-0.19c-0.3-0.12-0.57-0.3-0.8-0.53c-0.23-0.23-0.41-0.51-0.55-0.84
		c-0.14-0.33-0.2-0.7-0.2-1.11c0-0.39,0.06-0.76,0.19-1.09c0.13-0.33,0.31-0.63,0.55-0.87c0.23-0.24,0.5-0.43,0.82-0.57
		c0.32-0.14,0.66-0.2,1.02-0.2c0.29,0,0.54,0.04,0.76,0.11c0.21,0.07,0.4,0.16,0.57,0.26l0.15-0.25h0.29l0.03,1.8h-0.3
		c-0.05-0.2-0.11-0.4-0.19-0.59c-0.07-0.19-0.17-0.37-0.29-0.52c-0.12-0.15-0.26-0.27-0.43-0.37c-0.17-0.09-0.37-0.14-0.61-0.14
		c-0.26,0-0.49,0.05-0.69,0.16c-0.2,0.1-0.38,0.26-0.53,0.47c-0.15,0.2-0.26,0.45-0.34,0.75c-0.08,0.3-0.12,0.64-0.12,1.01
		c0,0.33,0.04,0.64,0.12,0.93c0.08,0.29,0.19,0.54,0.34,0.75c0.15,0.22,0.34,0.39,0.56,0.51c0.23,0.12,0.48,0.19,0.77,0.19
		c0.21,0,0.41-0.03,0.58-0.1c0.17-0.06,0.3-0.13,0.37-0.21c0.02-0.13,0.03-0.25,0.03-0.38c0-0.13,0-0.24,0-0.33v-0.28
		c0-0.1-0.01-0.19-0.04-0.27c-0.03-0.08-0.08-0.14-0.17-0.17c-0.08-0.04-0.19-0.06-0.33-0.08c-0.14-0.02-0.24-0.03-0.32-0.03v-0.26
		h2.26V32.99z"/>
	<path class="st4" d="M77.34,30.16c-0.07,0-0.17,0.02-0.3,0.04c-0.13,0.03-0.24,0.07-0.32,0.12c-0.08,0.05-0.14,0.17-0.17,0.34
		c-0.03,0.18-0.05,0.39-0.05,0.64v2.24c0,0.29-0.06,0.53-0.18,0.74c-0.12,0.21-0.28,0.38-0.47,0.52c-0.19,0.13-0.39,0.23-0.61,0.28
		c-0.21,0.06-0.41,0.09-0.61,0.09c-0.31,0-0.59-0.04-0.83-0.12c-0.24-0.08-0.45-0.19-0.61-0.33c-0.16-0.14-0.29-0.3-0.37-0.47
		c-0.08-0.18-0.12-0.36-0.12-0.56v-3.05c0-0.08-0.01-0.15-0.04-0.21c-0.03-0.06-0.08-0.11-0.17-0.16c-0.06-0.03-0.14-0.06-0.23-0.08
		c-0.09-0.02-0.17-0.03-0.23-0.04V29.9h2.13v0.26c-0.07,0-0.15,0.01-0.25,0.03c-0.1,0.02-0.18,0.04-0.22,0.05
		c-0.08,0.03-0.14,0.08-0.16,0.14c-0.03,0.07-0.04,0.14-0.04,0.22v2.84c0,0.14,0.01,0.28,0.05,0.43c0.03,0.15,0.09,0.29,0.18,0.42
		c0.1,0.13,0.22,0.24,0.39,0.33c0.16,0.08,0.39,0.13,0.67,0.13c0.27,0,0.49-0.04,0.67-0.13c0.18-0.09,0.32-0.2,0.43-0.34
		c0.1-0.13,0.17-0.27,0.21-0.41c0.04-0.14,0.06-0.29,0.06-0.43v-2.11c0-0.27-0.02-0.49-0.06-0.66c-0.04-0.17-0.1-0.28-0.17-0.34
		c-0.08-0.06-0.2-0.11-0.35-0.14c-0.15-0.03-0.26-0.05-0.34-0.06V29.9h2.11V30.16z"/>
	<path class="st4" d="M83.14,30.16c-0.07,0-0.17,0.02-0.31,0.06c-0.14,0.04-0.24,0.08-0.3,0.11c-0.09,0.06-0.15,0.18-0.18,0.35
		c-0.03,0.17-0.05,0.39-0.05,0.65v3.78h-0.32l-3.13-4.22v2.66c0,0.3,0.02,0.53,0.06,0.69c0.04,0.16,0.1,0.27,0.17,0.34
		c0.05,0.05,0.17,0.1,0.34,0.15c0.17,0.05,0.29,0.07,0.34,0.07v0.26h-2.11V34.8c0.07,0,0.17-0.03,0.33-0.07
		c0.15-0.04,0.25-0.08,0.29-0.12c0.08-0.07,0.14-0.17,0.17-0.31c0.03-0.14,0.05-0.38,0.05-0.71v-2.54c0-0.11-0.02-0.22-0.06-0.34
		c-0.04-0.11-0.09-0.2-0.15-0.26c-0.09-0.08-0.2-0.15-0.35-0.21c-0.15-0.06-0.27-0.09-0.36-0.09V29.9h1.47l2.9,3.93v-2.45
		c0-0.3-0.02-0.53-0.06-0.69c-0.04-0.16-0.09-0.27-0.17-0.32c-0.07-0.05-0.18-0.09-0.33-0.13c-0.15-0.04-0.27-0.07-0.35-0.07V29.9
		h2.1V30.16z"/>
	<path class="st4" d="M85.67,35.06h-2.33V34.8c0.07,0,0.16-0.01,0.28-0.02c0.12-0.01,0.21-0.02,0.26-0.04
		c0.08-0.03,0.14-0.07,0.18-0.13c0.04-0.05,0.05-0.13,0.05-0.23v-3.73c0-0.09-0.01-0.15-0.04-0.21c-0.03-0.06-0.09-0.1-0.19-0.14
		c-0.07-0.03-0.16-0.06-0.27-0.08c-0.11-0.03-0.2-0.04-0.27-0.05V29.9h2.33v0.26c-0.08,0-0.17,0.01-0.27,0.03
		c-0.11,0.01-0.2,0.03-0.27,0.06c-0.09,0.03-0.15,0.08-0.19,0.14c-0.03,0.07-0.05,0.14-0.05,0.22v3.73c0,0.08,0.02,0.15,0.05,0.21
		c0.04,0.06,0.1,0.11,0.18,0.15c0.05,0.02,0.13,0.04,0.25,0.06c0.12,0.02,0.21,0.04,0.29,0.04V35.06z"/>
	<path class="st4" d="M91.11,30.16c-0.06,0-0.14,0.02-0.23,0.04c-0.09,0.02-0.16,0.05-0.22,0.09c-0.08,0.05-0.15,0.12-0.2,0.2
		c-0.05,0.08-0.1,0.18-0.15,0.29c-0.16,0.38-0.41,0.99-0.73,1.8c-0.33,0.82-0.66,1.66-1,2.55h-0.3c-0.35-0.94-0.68-1.84-1.01-2.71
		c-0.32-0.87-0.54-1.46-0.66-1.76c-0.03-0.07-0.07-0.14-0.12-0.2c-0.05-0.06-0.11-0.11-0.19-0.16c-0.06-0.04-0.14-0.07-0.22-0.09
		c-0.08-0.02-0.15-0.03-0.22-0.04V29.9h2.13v0.26c-0.18,0.01-0.33,0.03-0.46,0.05c-0.12,0.03-0.19,0.07-0.19,0.14
		c0,0.03,0,0.06,0.01,0.1c0.01,0.04,0.02,0.07,0.02,0.09c0.09,0.24,0.23,0.62,0.44,1.16c0.2,0.54,0.49,1.3,0.86,2.29
		c0.18-0.45,0.4-0.98,0.64-1.59c0.24-0.61,0.4-1.03,0.48-1.26c0.08-0.22,0.13-0.37,0.14-0.46c0.01-0.08,0.02-0.15,0.02-0.21
		c0-0.06-0.02-0.1-0.07-0.14c-0.05-0.04-0.12-0.07-0.2-0.09c-0.08-0.03-0.16-0.04-0.24-0.06c-0.08-0.01-0.17-0.02-0.25-0.03V29.9
		h1.92V30.16z"/>
	<path class="st4" d="M95.64,33.54l-0.1,1.52h-4.27V34.8c0.07,0,0.17-0.01,0.29-0.03c0.12-0.02,0.2-0.03,0.24-0.05
		c0.08-0.04,0.13-0.08,0.16-0.14c0.03-0.06,0.05-0.13,0.05-0.22v-3.71c0-0.08-0.01-0.15-0.04-0.21c-0.03-0.06-0.08-0.11-0.17-0.15
		c-0.07-0.03-0.15-0.06-0.26-0.08c-0.11-0.02-0.2-0.04-0.26-0.04v-0.26h3.98v1.24h-0.27c-0.05-0.18-0.15-0.37-0.31-0.57
		c-0.16-0.2-0.32-0.31-0.46-0.33c-0.07-0.01-0.16-0.02-0.27-0.02c-0.1,0-0.22-0.01-0.35-0.01h-0.81v2.03h0.58
		c0.19,0,0.32-0.02,0.41-0.05c0.08-0.03,0.16-0.09,0.23-0.18c0.05-0.07,0.1-0.16,0.13-0.28c0.04-0.12,0.06-0.23,0.08-0.33h0.27v2.02
		H94.2c-0.01-0.12-0.04-0.24-0.08-0.37c-0.04-0.13-0.09-0.22-0.13-0.28c-0.08-0.1-0.16-0.15-0.26-0.19
		c-0.1-0.03-0.22-0.04-0.38-0.04h-0.58v1.54c0,0.15,0.01,0.28,0.03,0.36c0.02,0.09,0.06,0.16,0.13,0.2
		c0.06,0.05,0.15,0.08,0.26,0.09c0.11,0.01,0.26,0.02,0.46,0.02h0.31c0.13,0,0.24,0,0.33-0.01c0.09-0.01,0.19-0.03,0.28-0.05
		c0.1-0.02,0.17-0.06,0.21-0.1c0.11-0.12,0.23-0.29,0.35-0.53s0.2-0.41,0.23-0.52H95.64z"/>
	<path class="st4" d="M99.29,31.22c0-0.31-0.09-0.56-0.27-0.74c-0.18-0.18-0.44-0.27-0.77-0.27h-0.62v2.21h0.48
		c0.34,0,0.62-0.11,0.84-0.32C99.18,31.88,99.29,31.59,99.29,31.22 M101.2,35.06h-1.4c-0.31-0.48-0.58-0.89-0.83-1.24
		c-0.25-0.35-0.52-0.71-0.81-1.08h-0.53v1.63c0,0.08,0.01,0.16,0.04,0.22c0.03,0.06,0.08,0.11,0.17,0.15
		c0.04,0.02,0.12,0.03,0.23,0.05c0.11,0.01,0.2,0.02,0.27,0.03v0.26h-2.16V34.8c0.06,0,0.14-0.01,0.25-0.03
		c0.11-0.01,0.18-0.03,0.23-0.05c0.07-0.03,0.12-0.08,0.15-0.14c0.03-0.06,0.05-0.14,0.05-0.23v-3.73c0-0.08-0.01-0.16-0.04-0.23
		c-0.02-0.07-0.08-0.12-0.17-0.15c-0.06-0.02-0.14-0.04-0.23-0.06c-0.1-0.02-0.18-0.03-0.24-0.03V29.9h2.38
		c0.22,0,0.42,0.02,0.61,0.07c0.19,0.04,0.37,0.12,0.52,0.22c0.15,0.1,0.27,0.22,0.36,0.38c0.09,0.16,0.13,0.35,0.13,0.57
		c0,0.2-0.03,0.37-0.09,0.53c-0.06,0.15-0.15,0.29-0.27,0.4c-0.11,0.11-0.24,0.2-0.39,0.27c-0.15,0.08-0.32,0.14-0.51,0.2
		c0.25,0.34,0.47,0.62,0.64,0.85c0.17,0.23,0.38,0.51,0.62,0.84c0.11,0.14,0.2,0.25,0.29,0.32c0.09,0.07,0.17,0.12,0.26,0.17
		c0.06,0.03,0.14,0.06,0.24,0.07c0.1,0.02,0.17,0.03,0.24,0.03V35.06z"/>
	<path class="st4" d="M104.6,32.7c0.11,0.12,0.19,0.25,0.24,0.4c0.05,0.14,0.08,0.31,0.08,0.5c0,0.46-0.17,0.83-0.5,1.13
		c-0.34,0.3-0.75,0.45-1.25,0.45c-0.23,0-0.46-0.04-0.69-0.12c-0.23-0.08-0.43-0.17-0.59-0.27l-0.16,0.27h-0.29l-0.05-1.76h0.29
		c0.06,0.22,0.13,0.42,0.21,0.59c0.08,0.18,0.19,0.34,0.32,0.49c0.13,0.15,0.27,0.26,0.44,0.35c0.17,0.09,0.36,0.13,0.59,0.13
		c0.17,0,0.32-0.02,0.44-0.07c0.13-0.04,0.23-0.1,0.3-0.18c0.08-0.08,0.13-0.18,0.17-0.28c0.04-0.11,0.06-0.23,0.06-0.37
		c0-0.21-0.06-0.4-0.17-0.58s-0.29-0.31-0.52-0.41c-0.16-0.06-0.34-0.13-0.54-0.21c-0.2-0.08-0.38-0.15-0.53-0.21
		c-0.29-0.13-0.52-0.3-0.68-0.51c-0.16-0.21-0.24-0.49-0.24-0.83c0-0.2,0.04-0.38,0.12-0.55c0.08-0.17,0.19-0.32,0.34-0.45
		c0.14-0.13,0.3-0.22,0.5-0.3c0.19-0.07,0.39-0.11,0.6-0.11c0.24,0,0.45,0.04,0.64,0.11c0.19,0.07,0.36,0.16,0.51,0.26l0.15-0.25
		h0.29l0.03,1.71h-0.29c-0.05-0.2-0.11-0.38-0.18-0.56c-0.07-0.18-0.15-0.34-0.26-0.49c-0.11-0.14-0.23-0.25-0.38-0.34
		c-0.15-0.08-0.34-0.13-0.55-0.13c-0.23,0-0.43,0.07-0.59,0.22c-0.16,0.15-0.24,0.33-0.24,0.54c0,0.22,0.05,0.41,0.16,0.55
		c0.1,0.15,0.25,0.27,0.45,0.36c0.18,0.09,0.35,0.16,0.52,0.22c0.17,0.06,0.34,0.13,0.5,0.2c0.14,0.06,0.28,0.13,0.42,0.21
		C104.39,32.5,104.5,32.59,104.6,32.7"/>
	<path class="st4" d="M107.81,35.06h-2.32V34.8c0.06,0,0.16-0.01,0.28-0.02c0.12-0.01,0.21-0.02,0.26-0.04
		c0.08-0.03,0.14-0.07,0.18-0.13c0.04-0.05,0.05-0.13,0.05-0.23v-3.73c0-0.09-0.01-0.15-0.04-0.21c-0.03-0.06-0.09-0.1-0.19-0.14
		c-0.07-0.03-0.16-0.06-0.27-0.08c-0.11-0.03-0.2-0.04-0.27-0.05V29.9h2.32v0.26c-0.08,0-0.16,0.01-0.27,0.03
		c-0.1,0.01-0.2,0.03-0.27,0.06c-0.09,0.03-0.15,0.08-0.19,0.14c-0.03,0.07-0.05,0.14-0.05,0.22v3.73c0,0.08,0.02,0.15,0.05,0.21
		c0.04,0.06,0.1,0.11,0.18,0.15c0.05,0.02,0.13,0.04,0.25,0.06c0.11,0.02,0.21,0.04,0.29,0.04V35.06z"/>
	<path class="st4" d="M112.66,31.3h-0.25c-0.02-0.09-0.06-0.19-0.12-0.31c-0.06-0.12-0.12-0.23-0.19-0.34
		c-0.07-0.11-0.15-0.21-0.24-0.29s-0.17-0.13-0.25-0.14c-0.08-0.01-0.17-0.02-0.29-0.02c-0.11,0-0.22-0.01-0.32-0.01h-0.21v4.13
		c0,0.08,0.02,0.15,0.05,0.22c0.04,0.07,0.09,0.12,0.18,0.15c0.04,0.02,0.14,0.04,0.27,0.07c0.14,0.03,0.25,0.04,0.32,0.05v0.26
		h-2.43V34.8c0.07,0,0.17-0.01,0.31-0.03c0.14-0.01,0.23-0.03,0.29-0.05c0.08-0.03,0.14-0.08,0.18-0.14
		c0.04-0.06,0.06-0.14,0.06-0.24v-4.16h-0.21c-0.07,0-0.17,0-0.28,0c-0.11,0.01-0.22,0.01-0.32,0.02c-0.08,0.01-0.16,0.06-0.25,0.14
		c-0.08,0.09-0.17,0.18-0.24,0.29c-0.07,0.11-0.14,0.23-0.19,0.35c-0.06,0.12-0.09,0.22-0.12,0.3h-0.26v-1.4h4.5V31.3z"/>
	<path class="st4" d="M117.93,30.16c-0.04,0-0.11,0.02-0.2,0.05c-0.09,0.03-0.15,0.06-0.19,0.09c-0.1,0.06-0.16,0.1-0.19,0.13
		c-0.03,0.03-0.1,0.11-0.2,0.25c-0.19,0.27-0.36,0.54-0.52,0.81c-0.16,0.27-0.36,0.62-0.6,1.04c-0.09,0.15-0.15,0.28-0.18,0.37
		c-0.03,0.09-0.04,0.23-0.04,0.41v0.98c0,0.09,0.02,0.16,0.05,0.23c0.04,0.06,0.1,0.12,0.18,0.15c0.05,0.02,0.14,0.04,0.27,0.07
		c0.13,0.03,0.24,0.04,0.32,0.04v0.26h-2.41V34.8c0.07,0,0.17-0.01,0.3-0.03c0.14-0.01,0.23-0.03,0.28-0.05
		c0.09-0.04,0.15-0.08,0.18-0.15c0.03-0.06,0.05-0.14,0.05-0.23v-1.25c0-0.04-0.02-0.11-0.07-0.21c-0.05-0.1-0.1-0.22-0.17-0.34
		c-0.15-0.28-0.31-0.58-0.48-0.91c-0.18-0.33-0.33-0.61-0.46-0.84c-0.08-0.14-0.15-0.24-0.21-0.31c-0.06-0.07-0.13-0.13-0.21-0.19
		c-0.06-0.03-0.13-0.06-0.21-0.08c-0.08-0.02-0.15-0.03-0.22-0.04V29.9h2.2v0.26c-0.25,0.01-0.42,0.02-0.52,0.05
		c-0.1,0.03-0.15,0.07-0.15,0.12c0,0.01,0.01,0.04,0.02,0.08c0.01,0.04,0.04,0.08,0.06,0.14c0.03,0.06,0.07,0.14,0.11,0.22
		c0.04,0.08,0.08,0.16,0.12,0.24c0.11,0.21,0.23,0.43,0.35,0.65c0.12,0.21,0.27,0.49,0.46,0.84c0.38-0.61,0.67-1.09,0.87-1.43
		c0.2-0.34,0.3-0.55,0.3-0.61c0-0.06-0.02-0.1-0.06-0.14c-0.04-0.03-0.09-0.06-0.16-0.08c-0.07-0.02-0.15-0.03-0.23-0.04
		c-0.08-0.01-0.16-0.01-0.23-0.02V29.9h1.79V30.16z"/>
	<path class="st3" d="M59.14,19.53c-0.15,0.02-0.3,0.03-0.44,0.04c-0.41,0.12-0.86,0.29-1.33,0.44c-0.48,0.16-1.17,0.42-1.68,0.04
		c-0.04-0.04-0.02-0.01-0.05-0.09c0.46-0.49,0.45-0.78,1.15-1.11c0.01-0.48,0.2-1.06-0.04-1.37c0.05-0.73,0.91-0.37,1.55-0.53
		c0.39-0.1,0.88-0.24,1.2-0.44c0.38-0.24,0.76-0.76,0.93-1.2c0.07-0.18-0.01-0.55,0.09-0.71v-0.36c-0.03-0.07-1.13-0.43-1.28-0.53
		c-0.11-0.08-0.4-0.31-0.44-0.44c-0.04-0.12,0.01-0.23-0.04-0.31c-0.05-0.11-0.1-0.1-0.18-0.18c-0.22,0.02-0.29,0.1-0.38,0.18
		c-0.03,0.03-0.08,0.05-0.1,0.08c-0.02,0.03,0,0.07,0,0.11v1.08c-0.11,0.24-0.59,0.38-0.8,0.53c-0.18,0.19-0.36,0.38-0.53,0.58
		c-0.26-0.02-0.28-0.12-0.44-0.22c-0.38-1.79-0.55-3.29-1.77-4.21c-0.29-0.22-0.52-0.66-0.89-0.8c-0.13,0.35-0.3,0.72-0.4,1.08
		c-0.02,0.08,0.01,0.16-0.01,0.24c-0.22,0.82-0.39,1.66-0.61,2.53c-0.05,0.21-0.31,1.32-0.27,1.51c0.19,0.88,0.44,2.01,0.66,2.83
		c0.11,0.38,0.02,0.66,0.13,1.02c0.2,0.64,0.77,2.3,1.24,2.61c0.53,0.35,1.4,0.51,2.08,0.22c0.21-0.09,0.39-0.39,0.53-0.44h0.66
		c0.65-0.18,1.3-0.35,1.95-0.53c0.23-0.1,0.81-0.41,0.97-0.58c0.24-0.24,0.25-0.71,0.53-0.97c0.01-0.32-0.03-0.45-0.13-0.62
		C60.18,19.06,59.7,19.32,59.14,19.53"/>
	<path class="st3" d="M47.05,20.15v0.57c-0.08,0.18-0.49,0.33-0.66,0.44c-0.15,0.1-0.32,0.28-0.49,0.35
		c-0.31,0.14-0.58,0.14-0.84,0.31c-0.24,0.15-0.51,0.37-0.75,0.53c-0.18,0.12-0.82,0.37-1.11,0.18c-0.04-0.02-0.09-0.03-0.13-0.04
		c0.03-0.48,0.38-0.69,0.58-1.02c0.39-0.63,0.9-1.16,1.28-1.77c0.03-0.1,0.06-0.21,0.09-0.31c0.14-0.22,0.43-0.4,0.53-0.66
		c0.78,0.02,1.18-0.38,1.33-0.98c0.11,0.01,0.15,0.02,0.22,0.05c0.01,0.49,0.02,1.07,0,1.55C47.08,19.59,47.15,19.99,47.05,20.15
		 M49.35,13.73c-0.01-0.59,0.01-1.26-0.09-1.73c-0.08-0.38,0.09-0.88-0.04-1.19c-0.41-0.96-2.14-1.81-3.1-2.3
		c-0.37-0.19-0.37-0.56-0.89-0.66c-0.12-0.02-0.36,0.24-0.35,0.31C44.85,8.76,45.32,9,45.63,9.39c0.19,0.24,0.31,0.51,0.49,0.75
		c0.28,0.38,0.76,0.7,0.93,1.19c0.27,0.79,0.28,2.79,0.09,3.68v0.89c-0.03,0.34-0.06,0.68-0.09,1.02c-0.25-0.09-0.41-0.34-0.66-0.44
		c-0.19-0.03-0.38-0.06-0.58-0.09c-0.18-0.11-0.29-0.32-0.53-0.4c-0.27-0.09-0.51,0.01-0.8-0.09c-0.31-0.11-0.4-0.35-0.89-0.35
		c-0.1,0.01-0.28,0.16-0.27,0.22c0.07,0.37,0.38,0.56,0.49,0.89v0.35c0.07,0.28,0.15,0.66,0.22,0.97c0.11,0.51-0.21,0.8-0.31,1.11
		c-0.39,1.27-0.62,2.55-1.61,3.2c-0.04,0.02-0.07,0.05-0.09,0.1C42,22.42,42,22.53,42,22.56c-0.02,0.73-0.14,2.15,0.53,2.37
		c0.02,0.02,0.07,0.04,0.07,0.04c0.07,0.03,0.67,0.03,0.78,0c0.24-0.12,0.66-0.74,0.93-0.93c0.4-0.29,0.84-0.47,1.24-0.75
		c0.07-0.09,0.15-0.18,0.22-0.26c0.41-0.3,0.8-0.62,1.15-0.97c0.04-0.02,0.11-0.03,0.13,0c0.03,0.15,0.1,0.48,0,0.62
		c-0.01,0.76-0.09,1.3,0.22,1.77c0.17,0.01,0.43,0.02,0.53-0.04c0.35-0.13,0.52-0.72,0.66-1.06c0.38-0.89,0.47-1.95,0.71-3.01
		c0.01-0.37,0.03-0.74,0.04-1.11c0.22-1,0.18-2.22,0.18-3.37c0.02-0.46,0.03-0.92,0.04-1.37C49.39,14.26,49.35,13.99,49.35,13.73"/>
	<path class="st3" d="M105.98,11.83c0.14,0.19,0.39,0.34,0.53,0.53c0.46,0.65,0.59,1.99,0.84,2.83c0.8-0.01,1.13-0.7,1.51-1.15
		c0-1.1-1.13-2.79-1.77-3.23c-0.37-0.26-0.82-0.37-1.2-0.62c-0.4-0.27-0.62-0.65-1.11-0.84c-0.07-0.02-0.21,0.13-0.22,0.18v0.71
		c0.16,0.13,0.33,0.27,0.49,0.4C105.36,11.05,105.67,11.41,105.98,11.83"/>
	<path class="st3" d="M114.04,12.49c-0.17,0.23-0.3,0.5-0.44,0.75c-0.12-0.01-0.15-0.02-0.22-0.04c-0.13-0.65-0.18-1.15-0.4-1.64
		c-0.15-0.03-0.23-0.05-0.36,0.04c-0.26,0.22-0.07,0.8-0.4,1.06c-0.13,0.13-0.47-0.37-0.57-0.44c0.08-0.95,0.99-1.65,1.46-2.26
		c0.85,0.02,1.46,0.44,2.26,0.49C115.34,11.5,114.5,11.87,114.04,12.49 M115.45,13.07c0.69-0.89,1.61-1.71,2.04-2.83
		c0.12-0.32,0.65-1.1,0.31-1.55c-0.15-0.23-0.58-0.09-0.89-0.18c-0.14-0.04-0.24-0.19-0.35-0.22c-0.2-0.06-0.41,0.1-0.53,0.13
		c-0.56,0.18-1.04,0.24-1.55,0.44c-0.23,0.09-0.87,0.48-1.15,0.31c-0.04-0.01-0.09-0.03-0.13-0.04c0.05-0.85,0.65-1.35,0.93-2.04
		c0.08-0.2,0.34-0.73,0.18-0.97c-0.02-0.4-0.44-0.67-0.66-0.89c-0.07-0.06-0.4,0.05-0.4,0.18c0.02,1.13-0.46,2.35-1.11,2.79
		c-0.21,0.14-0.39,0.08-0.66,0.18c-0.44,0.15-0.9,0.6-1.42,0.22c-0.27,0-0.3,0.04-0.44,0.13c0.05,0.44,0.31,0.81,0.66,0.93
		c0.09,0.05,0.41,0.01,0.62,0c-0.01,0.35-0.28,0.64-0.49,0.8c0,0.15,0.01,0.26,0.04,0.35c0.48,0.09,0.57-0.16,1.02-0.18
		c-0.07,0.5-0.48,0.74-0.71,1.11c-0.3,0.06-0.74,0.1-1.02,0.13c-0.02,0-0.05,0.04-0.04,0.05c0.01,0.34,0.14,0.45,0.35,0.57
		c-0.12,0.46-0.49,0.79-0.75,1.15c-0.1,0.14-0.4,0.34-0.22,0.62c0.06,0.1,0.13,0.11,0.27,0.13c0.45-0.43,1.2-0.63,1.42-1.28
		c0.7,0.04,0.7,0.21,1.11,0.49c-0.02,0.25-0.14,0.51-0.27,0.66c0,0.17,0.01,0.33,0.05,0.44c0.53-0.02,1.32-0.72,1.68-0.49h0.09
		c-0.06,0.3-0.4,0.31-0.62,0.44c-0.47,0.29-1.03,0.48-1.55,0.75c-0.7,0.37-1.48,0.78-2.12,1.2c-0.19,0.06-0.38,0.12-0.58,0.18
		c-1.05,0.62-2.05,1.4-3.14,1.99c-0.03,0.08-0.01,0.04-0.04,0.09c0,0.14,0.02,0.23,0.04,0.31c1.35,0.28,2.43-0.34,3.37-0.71
		c1.26-0.5,2.46-1.32,3.5-2.08c0.34-0.25,0.58-0.66,0.93-0.89c0.27-0.18,0.51-0.25,0.75-0.44h0.22c-0.08,0.27-0.27,0.38-0.4,0.58
		c-0.05,0.12-0.09,0.24-0.13,0.35c-0.24,0.22-0.47,0.44-0.71,0.66c-0.11,0.15-0.21,0.38-0.36,0.49c-0.35,0.27-0.75,0.53-1.02,0.89
		c-0.04,0.06,0.02,0.3,0.04,0.44c0.71-0.06,1.12-0.52,1.64-0.75c0.32-0.15,0.67-0.18,0.97-0.35c0.21-0.12,0.31-0.36,0.49-0.49
		c0.86-0.64,1.64-1.14,1.46-2.7c-0.22-0.08-0.54-0.09-0.71-0.22h-0.93C114.67,13.43,115.18,13.43,115.45,13.07"/>
	<path class="st3" d="M104.56,16.56c0.11,0.26,0.4,0.56,0.49,0.84c0.19,0.04,0.28,0.02,0.49,0c0.34-0.36,0.56-0.68,0.66-1.29
		c0.09-0.52-0.98-1.83-1.33-1.95c-0.09-0.06-0.29-0.05-0.44-0.04c-0.07,0.3,0.1,1.22,0.13,1.55V16.56z"/>
	<path class="st3" d="M112.31,19.13c-0.34,0.44-1.75,0.42-2.35,0.66c-0.82,0.34-1.69,0.61-2.52,0.97c-0.55,0.24-1.13,0.57-1.68,0.8
		c-0.15,0.03-0.3,0.06-0.44,0.09c-0.24,0.1-0.5,0.35-0.71,0.44c-0.21,0.01-0.41,0.03-0.62,0.04c-0.22,0.1-0.33,0.32-0.49,0.49
		c0.01,0.79,0.42,1.02,0.62,1.47c0.04,0.09,0,0.18,0.09,0.3c0.07,0.07,0.27,0.15,0.4,0.18c0.31,0.06,0.76-0.22,0.97-0.31
		c0.83-0.36,1.45-0.97,2.17-1.42c0.26-0.16,0.66-0.35,0.93-0.44c0.32-0.11,0.56-0.01,0.84-0.13c0.51-0.21,0.3-0.56,1.06-0.31
		c0.03,0.12,0.11,0.22,0.13,0.31c0.09,0.31-0.1,0.69-0.04,0.93c0.06,0.26,0.15,0.32,0.13,0.66c-0.1,0.11-0.14,0.31-0.27,0.4
		c-0.38,0.28-0.99,0.4-1.5,0.53c-0.35,0.09-0.79-0.15-1.06,0.04h-0.09c0.01,0.15,0.02,0.23,0.09,0.31c0.13,0.4,0.38,0.26,0.8,0.4
		c0.41,0.13,0.85,0.71,1.55,0.31c0.15-0.08,0.2-0.3,0.4-0.35c0.35-0.1,0.67,0.06,0.89-0.13c0.21-0.11,0.25-0.37,0.35-0.58
		c0.1-0.18,0.25-0.46,0.31-0.66c0.08-0.3-0.08-0.58-0.13-0.75c-0.03-0.18-0.06-0.35-0.09-0.53c-0.17-0.41-0.43-0.64-0.44-1.24
		c-0.01-0.07,0.07-0.15,0.13-0.18c0.49-0.12,0.98-0.23,1.64-0.22c0.21-0.21,0.5-0.36,0.66-0.62c0.11-0.17,0.11-0.41,0.22-0.58
		c0-0.43-0.15-0.47-0.31-0.71C113.31,19.3,112.92,19.13,112.31,19.13"/>
	<path class="st3" d="M96.28,13.55c0.13-0.19,0.13-0.36,0.31-0.49c0.14-0.09-0.04-0.59-0.13-0.62c-1.66-0.37-1.8,0.85-2.66,1.51
		c-0.39,0.3-0.84,0.5-1.24,0.8h-0.09c-0.16-0.88-0.05-2.05-0.05-3.01v-1.15c0.03-0.08,0.18-0.18,0.22-0.27
		c0.15-0.35,0.08-0.91-0.09-1.19c-0.24-0.39-0.74-0.49-1.11-0.75c-0.19-0.14-0.34-0.39-0.57-0.49c-0.36-0.15-0.76-0.01-1.06-0.22
		c-0.2,0.03-0.26,0.1-0.4,0.18c-0.39,1.02,0.57,2.45,0.84,3.19c0.24,0.64,0.25,2.63,0.09,3.36c-0.12,0.56,0.07,1.39-0.22,1.77
		c-0.17,0.23-1.62,0.72-1.99,0.89c-0.31,0.14-0.68,0.33-1.02,0.44c-0.38,0.13-0.74,0.16-1.06,0.36c-0.49,0.3-1.28,0.83-1.82,1.02
		c-0.16,0.01-0.32,0.03-0.49,0.04c-0.23,0.07-0.52,0.2-0.75,0.26c-0.14,0.04-0.32,0.05-0.36,0.05c-0.16-0.16-0.37-0.39-0.49-0.58
		c-0.06-0.08-0.14-0.13-0.19-0.1c-0.03,0-0.07,0.04-0.08,0.14c-0.04,1.38-0.14,1.67,0.49,2.61c1.29,0.27,2.22-0.36,3.05-0.93
		c0.37-0.25,0.73-0.4,1.11-0.66c0.28-0.19,0.49-0.54,0.8-0.71c0.13-0.03,0.27-0.06,0.4-0.09c0.58-0.23,1.18-0.58,1.95-0.62
		c-0.01,1.46-1.26,2.95-2.17,3.54c-0.14,0.09-0.28,0.19-0.45,0.26c-0.18,0.07-0.34,0.15-0.48,0.22c-0.12,0.01-0.24,0.03-0.35,0.04
		c-0.22,0.11-0.51,0.29-0.71,0.44c-0.3,0.22-0.26,0.43-0.44,0.71v0.09c2.36-0.01,3.83-1.05,5.14-2.13c0.49-0.4,1.1-0.76,1.37-1.37
		c0.33-0.74,0.45-1.64,0.66-2.43c0.05-0.31,0.09-0.62,0.13-0.93c0.13-0.23,0.78-0.58,1.02-0.75c0.23-0.17,0.43-0.45,0.66-0.62
		c0.47-0.35,0.95-0.66,1.42-1.02C95.74,14.16,96.11,13.82,96.28,13.55"/>
	<path class="st3" d="M96.37,20.24c-0.44-0.34-0.62-0.85-1.42-0.84c-0.04,0.04-0.08,0.06-0.13,0.09c-0.02,1.04,0.11,1.19,0.4,1.95
		c0.03,0.13,0.06,0.26,0.09,0.4c0.1,0.2,0.52,0.67,0.26,1.06c0.05,0.4,0.73,0.55,1.2,0.4c0.5-0.16,1.02-0.51,1.33-0.89
		C98.09,21.26,97.04,20.76,96.37,20.24"/>
	<path class="st3" d="M71.36,6.51c0.06,0.05,0.12,0.09,0.18,0.13c0.16,0.23,0.36,0.62,0.44,0.89c0.18,0.56,0.23,1.5-0.18,1.77
		c-0.06,0.03-0.01,0.45,0.13,0.44c0.7-0.09,1.41-0.58,1.68-1.11c1.22,0.04,1.9-0.32,1.82-1.55c-0.12-0.13-0.17-0.34-0.31-0.44
		c-0.36-0.28-0.78-0.56-1.15-0.8c-0.17-0.11-0.4-0.11-0.58-0.22c-0.63-0.38-1.14-0.77-2.17-0.75c-0.51,0.6-0.19,0.59,0.04,1.11
		C71.3,6.16,71.33,6.33,71.36,6.51"/>
	<path class="st3" d="M70.38,14.62c0.33,0.09,1.11-0.09,1.37-0.18c0.74-0.25,1.53-1.57,2.17-2.04c0.43-0.31,0.91-0.77,1.42-0.97
		c0.19-0.03,0.38-0.06,0.58-0.09c0.19-0.21,0.38-0.41,0.58-0.62c-0.01-0.25-0.07-0.45-0.18-0.44h-0.53
		c-0.23,0.15-0.66,0.09-0.93,0.18c-0.5,0.15-1.03,0.38-1.51,0.53c-0.13,0.01-0.27,0.03-0.4,0.04c-1.46,0.55-2.99,1.18-4.38,1.77
		c-0.09,0.22-0.29,0.55-0.09,0.8C68.63,14.04,69.88,14.49,70.38,14.62"/>
	<path class="st3" d="M74.81,18.56c-0.54,0-1.03-0.11-1.51,0.05c-0.23,0.07-0.33,0.26-0.58,0.31c0.05-0.29,0.61-0.63,0.8-0.84
		c0.15-0.17,0.3-0.39,0.49-0.53c0.15-0.12,0.37-0.2,0.49-0.35c0.08-0.1,0.13-0.27,0.22-0.35c0.07-0.01,0.15-0.03,0.22-0.04
		c0.11-0.1,0.14-0.3,0.27-0.4c0.37-0.28,0.73-0.34,0.97-0.75c0.05-0.09-0.04-0.27-0.13-0.35c-0.29-0.23-1.74-0.43-2.26-0.27
		c-0.26,0.08-0.63,0.24-0.84,0.4c-0.07,0.1-0.15,0.21-0.22,0.31c-0.22,0.03-0.44,0.06-0.66,0.09c-0.27,0.16-0.49,0.48-0.75,0.66
		c-0.54,0.38-1.11,0.69-1.68,1.02c-0.25,0.14-0.54-0.46-0.71-0.57c-0.11-0.08-0.25-0.09-0.35-0.18c-0.1,0.01-0.12,0.01-0.18,0.04
		c-0.1,0.03-0.1,0.05-0.18,0.09c-0.02,0.31,0.12,0.69,0.04,1.02c-0.17,0.73-0.49,2.07-0.22,2.92c0.04,0.14,0.21,0.31,0.27,0.44
		c0.07,0.17,0.04,0.33,0.13,0.49c0.13,0.23,0.43,0.3,0.53,0.58c0.39-0.08,1.06-1.3,1.36-1.77c0,0,0,0,0-0.01
		c0.07-0.11,0.06-0.19,0.06-0.26v-0.01v-1.09c0.15-0.04,0.44-0.09,0.58-0.18c0.21,0,0.28,0.02,0.4,0.09
		c-0.01,0.14-0.51,1.34-0.58,1.42c0.04,0.31,0.24,0.42,0.49,0.49c-0.08,0.6-0.75,0.73-1.15,1.02c-0.48,0.34-1,0.71-1.51,1.02
		c-0.2,0.12-0.42,0.14-0.62,0.27c-0.12,0.08-0.23,0.24-0.35,0.31c-0.21,0.13-0.43,0.13-0.62,0.27c-0.09,0.07-0.13,0.23-0.26,0.27
		c-0.18,0.05-0.33-0.11-0.44-0.13c-0.27-0.06-0.47,0.13-0.66,0.18c-0.05,1.09,0.42,2.2,1.64,2.21c0.61-0.65,1.27-1.18,1.81-1.9
		c0.19-0.16,0.38-0.32,0.58-0.49c0.13-0.19,0.16-0.36,0.31-0.53c0.05-0.06,0.15-0.04,0.22-0.09c0.16-0.18,0.32-0.35,0.49-0.53
		c0.15-0.11,0.29-0.12,0.4-0.27c0.09,0.02,0.09,0.01,0.13,0.04c0.12,0.15,0.11,0.41,0.22,0.57c0.01,0.4,0.04,0.85-0.22,0.98
		c-0.13,0.03-0.26,0.06-0.4,0.09c-0.11,0.08-0.15,0.27-0.26,0.35v0.27c0.03,0.06,0.81,0.32,0.93,0.4c0.09,0.06,0.27,0.29,0.31,0.4
		v0.4c0.05,0.12,0.27,0.27,0.36,0.4c0.14,0.03,0.44,0.09,0.58,0c0.04-0.01,0.09-0.03,0.13-0.04c-0.02-1.36-0.1-2.6-0.49-3.63
		c-0.13-0.35-0.62-0.99-0.31-1.46c0-0.66,0.45-0.47,0.84-0.71c0.54-0.33,1.13-0.64,1.64-1.02c0.2-0.14,0.28-0.39,0.44-0.58
		C74.95,18.83,74.86,18.74,74.81,18.56"/>
	<path class="st3" d="M77.38,21.52c-0.46-0.63-0.95-1.22-2.08-1.19c-0.08,0.05-0.25,0.05-0.4,0.04c-0.22,0.92-0.2,1.66,0.26,2.35
		c0.12,0.1,0.24,0.21,0.35,0.31c0.26,0.39,0.41,0.77,0.89,0.93c0.48,0.31,1.06-0.29,1.28-0.44c0.07-0.26,0.28-1.1,0.13-1.33
		C77.8,21.81,77.54,21.75,77.38,21.52"/>
</g>
<g>
	<defs>
		<path id="SVGID_47_" d="M212.44-428.11"/>
	</defs>
	<defs>
		<path id="SVGID_48_" d="M-269.45,252.21"/>
	</defs>
	<clipPath id="SVGID_49_">
		<use xlink:href="#SVGID_47_"  style="overflow:visible;"/>
	</clipPath>
	<clipPath id="SVGID_50_" class="st5">
		<use xlink:href="#SVGID_48_"  style="overflow:visible;"/>
	</clipPath>
</g>
<g>
	<defs>
		<path id="SVGID_51_" d="M212.44-428.11"/>
	</defs>
	<defs>
		<path id="SVGID_52_" d="M212.44,252.21"/>
	</defs>
	<defs>
		<path id="SVGID_53_" d="M-269.45,252.21"/>
	</defs>
	<clipPath id="SVGID_54_">
		<use xlink:href="#SVGID_51_"  style="overflow:visible;"/>
	</clipPath>
	<clipPath id="SVGID_55_" class="st6">
		<use xlink:href="#SVGID_52_"  style="overflow:visible;"/>
	</clipPath>
	<clipPath id="SVGID_56_" class="st7">
		<use xlink:href="#SVGID_53_"  style="overflow:visible;"/>
	</clipPath>
</g>
<g>
	<defs>
		<path id="SVGID_57_" d="M212.44-428.11"/>
	</defs>
	<defs>
		<path id="SVGID_58_" d="M212.44,252.21"/>
	</defs>
	<defs>
		<path id="SVGID_59_" d="M-269.45,252.21"/>
	</defs>
	<clipPath id="SVGID_60_">
		<use xlink:href="#SVGID_57_"  style="overflow:visible;"/>
	</clipPath>
	<clipPath id="SVGID_61_" class="st8">
		<use xlink:href="#SVGID_58_"  style="overflow:visible;"/>
	</clipPath>
	<clipPath id="SVGID_62_" class="st9">
		<use xlink:href="#SVGID_59_"  style="overflow:visible;"/>
	</clipPath>
</g>
<path class="st10" d="M117.74,35.1"/>
<g>
	<defs>
		<path id="SVGID_63_" d="M212.44-428.11"/>
	</defs>
	<clipPath id="SVGID_64_">
		<use xlink:href="#SVGID_63_"  style="overflow:visible;"/>
	</clipPath>
	<g style="clip-path:url(#SVGID_64_);">
		<text transform="matrix(1 0 0 1 -233.4483 -110.0016)" style="font-family:'FZZDXJW--GB1-0'; font-size:9px;">空间隔离处理，保证不可侵入空间。</text>
	</g>
</g>
</svg>
